<svg width="44" height="32" viewBox="0 0 44 32" fill="none" xmlns="http://www.w3.org/2000/svg">
<g clip-path="url(#clip0_207_7471)">
<path d="M41.0363 0H2.96373C1.32912 0 0 1.3204 0 2.9443V12.8145C0 16.9365 3.37409 20.2885 7.52332 20.2885H36.4767C40.6259 20.2885 44 16.9365 44 12.8145V2.9443C44 1.3204 42.6709 0 41.0363 0ZM1.36788 12.8145V2.9443C1.36788 2.07007 2.08373 1.35891 2.96373 1.35891H41.0363C41.9163 1.35891 42.6321 2.07007 42.6321 2.9443V12.8145C42.6321 13.0206 42.6207 13.2267 42.6002 13.4283H1.39979C1.37927 13.2267 1.36788 13.0206 1.36788 12.8145ZM39.3583 14.7872C39.0506 16.0464 37.9061 16.9863 36.5428 16.9863H7.4572C6.09389 16.9863 4.94943 16.0464 4.64166 14.7872H39.3583ZM36.4767 18.9296H7.52332C4.82404 18.9296 2.52373 17.1947 1.69845 14.7872H3.2487C3.57471 16.8006 5.33699 18.3452 7.4572 18.3452H36.5428C38.663 18.3452 40.4253 16.8006 40.7513 14.7872H42.3016C41.4763 17.1947 39.176 18.9296 36.4767 18.9296Z" fill="black"/>
<path d="M26.4462 11.3898H17.555C16.4858 11.3898 15.6172 10.5269 15.6172 9.46467C15.6172 8.40246 16.4858 7.53955 17.555 7.53955H26.4462C27.5154 7.53955 28.384 8.40246 28.384 9.46467C28.384 10.5269 27.5154 11.3898 26.4462 11.3898ZM17.555 8.89846C17.2404 8.89846 16.9851 9.15212 16.9851 9.46467C16.9851 9.77722 17.2404 10.0309 17.555 10.0309H26.4462C26.7608 10.0309 27.0162 9.77722 27.0162 9.46467C27.0162 9.15212 26.7608 8.89846 26.4462 8.89846H17.555Z" fill="black"/>
<path d="M13.3359 26.7907V22.261C13.3359 21.8857 13.0297 21.5815 12.652 21.5815C12.2743 21.5815 11.9681 21.8857 11.9681 22.261V26.7907C11.9681 27.1659 12.2743 27.4701 12.652 27.4701C13.0297 27.4701 13.3359 27.1659 13.3359 26.7907Z" fill="black"/>
<path d="M13.3359 31.3204V29.282C13.3359 28.9067 13.0297 28.6025 12.652 28.6025C12.2743 28.6025 11.9681 28.9067 11.9681 29.282V31.3204C11.9681 31.6956 12.2743 31.9998 12.652 31.9998C13.0297 31.9998 13.3359 31.6956 13.3359 31.3204Z" fill="black"/>
<path d="M19.4922 26.7907V22.261C19.4922 21.8857 19.186 21.5815 18.8082 21.5815C18.4305 21.5815 18.1243 21.8857 18.1243 22.261V26.7907C18.1243 27.1659 18.4305 27.4701 18.8082 27.4701C19.186 27.4701 19.4922 27.1659 19.4922 26.7907Z" fill="black"/>
<path d="M19.4922 31.3204V29.282C19.4922 28.9067 19.186 28.6025 18.8082 28.6025C18.4305 28.6025 18.1243 28.9067 18.1243 29.282V31.3204C18.1243 31.6956 18.4305 31.9998 18.8082 31.9998C19.186 31.9998 19.4922 31.6956 19.4922 31.3204Z" fill="black"/>
<path d="M25.6484 26.7907V22.261C25.6484 21.8857 25.3422 21.5815 24.9645 21.5815C24.5868 21.5815 24.2806 21.8857 24.2806 22.261V26.7907C24.2806 27.1659 24.5868 27.4701 24.9645 27.4701C25.3422 27.4701 25.6484 27.1659 25.6484 26.7907Z" fill="black"/>
<path d="M25.6484 31.3204V29.282C25.6484 28.9067 25.3422 28.6025 24.9645 28.6025C24.5868 28.6025 24.2806 28.9067 24.2806 29.282V31.3204C24.2806 31.6956 24.5868 31.9998 24.9645 31.9998C25.3422 31.9998 25.6484 31.6956 25.6484 31.3204Z" fill="black"/>
<path d="M31.8027 26.7907V22.261C31.8027 21.8857 31.4965 21.5815 31.1188 21.5815C30.7411 21.5815 30.4349 21.8857 30.4349 22.261V26.7907C30.4349 27.1659 30.7411 27.4701 31.1188 27.4701C31.4965 27.4701 31.8027 27.1659 31.8027 26.7907Z" fill="black"/>
<path d="M31.8027 31.3204V29.282C31.8027 28.9067 31.4965 28.6025 31.1188 28.6025C30.7411 28.6025 30.4349 28.9067 30.4349 29.282V31.3204C30.4349 31.6956 30.7411 31.9998 31.1188 31.9998C31.4965 31.9998 31.8027 31.6956 31.8027 31.3204Z" fill="black"/>
</g>
<defs>
<clipPath id="clip0_207_7471">
<rect width="44" height="32" fill="white"/>
</clipPath>
</defs>
</svg>
