<svg width="24" height="45" viewBox="0 0 24 45" fill="none" xmlns="http://www.w3.org/2000/svg">
<g clip-path="url(#clip0_207_7567)">
<path d="M15.2257 0H8.77431C3.9363 0 0 3.93803 0 8.77817V40.8845C0 41.4887 0.342103 42.0169 0.844699 42.281V43.8275C0.844699 44.4739 1.37052 45 2.01672 45H22.0572C22.7034 45 23.2292 44.4739 23.2292 43.8275V42.2387C23.6917 41.9641 24 41.4592 24 40.8845V8.77817C24 3.93803 20.0637 0 15.2257 0ZM1.26705 8.77817C1.26705 4.63732 4.63528 1.26761 8.77431 1.26761H15.2257C19.3647 1.26761 22.733 4.63732 22.733 8.77817V40.8845C22.733 41.0556 22.5915 41.1972 22.4183 41.1972H1.57959C1.40853 41.1972 1.26705 41.0556 1.26705 40.8845V8.77817ZM21.9622 43.7324H2.11175V42.4648H21.9622V43.7324Z" fill="black"/>
<path d="M12.0328 4.11963C9.22632 4.11963 6.94141 6.40554 6.94141 9.21329V35.1527C6.94141 37.9605 9.22632 40.2464 12.0328 40.2464C14.8393 40.2464 17.1264 37.9605 17.1264 35.1527V9.21329C17.1264 6.40554 14.8414 4.11963 12.0328 4.11963ZM8.20845 12.2534H9.45227V13.9436H8.20845V12.2534ZM9.45227 31.9013H8.20845V29.9999H9.45227V31.9013ZM9.45227 28.7323H8.20845V27.0422H9.45227V28.7323ZM9.45227 25.7746H8.20845V24.0844H9.45227V25.7746ZM9.45227 22.8168H8.20845V21.1267H9.45227V22.8168ZM9.45227 19.8591H8.20845V18.1689H9.45227V19.8591ZM8.20845 15.2112H9.45227V16.9013H8.20845V15.2112ZM11.4035 38.926C9.59376 38.626 8.20845 37.0478 8.20845 35.1527V33.1689H9.45227V34.9161C9.45227 36.1246 10.2843 37.1408 11.4035 37.4217V38.926ZM10.7193 34.9161V9.44991C10.7193 8.72315 11.3085 8.13371 12.0328 8.13371C12.7572 8.13371 13.3484 8.72315 13.3484 9.44991V34.9161C13.3484 35.6429 12.7593 36.2323 12.0328 36.2323C11.3064 36.2323 10.7193 35.6429 10.7193 34.9161ZM15.8593 35.1527C15.8593 37.0457 14.4782 38.6217 12.6706 38.9239V37.4196C13.7877 37.1365 14.6155 36.1224 14.6155 34.9161V33.1689H15.8593V35.1527ZM15.8593 31.9013H14.6155V29.9999H15.8593V31.9013ZM15.8593 28.7323H14.6155V27.0422H15.8593V28.7323ZM15.8593 25.7746H14.6155V24.0844H15.8593V25.7746ZM15.8593 22.8168H14.6155V21.1267H15.8593V22.8168ZM15.8593 19.8591H14.6155V18.1689H15.8593V19.8591ZM15.8593 16.9013H14.6155V15.2112H15.8593V16.9013ZM15.8593 13.9436H14.6155V12.2534H15.8593V13.9436ZM15.8593 10.9858H14.6155V9.44991C14.6155 8.02385 13.4583 6.86611 12.0328 6.86611C10.6074 6.86611 9.45227 8.02385 9.45227 9.44991V10.9858H8.20845V9.21329C8.20845 7.10273 9.9253 5.38723 12.0328 5.38723C14.1403 5.38723 15.8593 7.10273 15.8593 9.21329V10.9858Z" fill="black"/>
</g>
<defs>
<clipPath id="clip0_207_7567">
<rect width="24" height="45" fill="white"/>
</clipPath>
</defs>
</svg>
