<svg width="86" height="86" viewBox="0 0 86 86" fill="none" xmlns="http://www.w3.org/2000/svg">
    <g clip-path="url(#clip0_207_7693)">
        <path d="M43 86C19.288 86 0 66.712 0 43C0 19.288 19.288 0 43 0C66.712 0 86 19.288 86 43C86 66.712 66.712 86 43 86ZM43 2.32432C20.5703 2.32432 2.32432 20.5703 2.32432 43C2.32432 65.4297 20.5703 83.6757 43 83.6757C65.4297 83.6757 83.6757 65.4297 83.6757 43C83.6757 20.5703 65.4297 2.32432 43 2.32432Z" fill="#808080"/>
        <path d="M23.2432 52.2974C19.1834 52.2974 15.8828 48.9968 15.8828 44.937C15.8828 40.8772 19.1834 37.5767 23.2432 37.5767C27.303 37.5767 30.6035 40.8772 30.6035 44.937C30.6035 48.9968 27.303 52.2974 23.2432 52.2974ZM23.2432 39.901C20.4656 39.901 18.2071 42.1595 18.2071 44.937C18.2071 47.7146 20.4656 49.9731 23.2432 49.9731C26.0207 49.9731 28.2792 47.7146 28.2792 44.937C28.2792 42.1595 26.0207 39.901 23.2432 39.901Z" fill="#808080"/>
        <path d="M43 52.2974C38.9402 52.2974 35.6396 48.9968 35.6396 44.937C35.6396 40.8772 38.9402 37.5767 43 37.5767C47.0598 37.5767 50.3604 40.8772 50.3604 44.937C50.3604 48.9968 47.0598 52.2974 43 52.2974ZM43 39.901C40.2224 39.901 37.964 42.1595 37.964 44.937C37.964 47.7146 40.2224 49.9731 43 49.9731C45.7776 49.9731 48.036 47.7146 48.036 44.937C48.036 42.1595 45.7776 39.901 43 39.901Z" fill="#808080"/>
        <path d="M62.7568 52.2974C58.697 52.2974 55.3965 48.9968 55.3965 44.937C55.3965 40.8772 58.697 37.5767 62.7568 37.5767C66.8167 37.5767 70.1172 40.8772 70.1172 44.937C70.1172 48.9968 66.8167 52.2974 62.7568 52.2974ZM62.7568 39.901C59.9793 39.901 57.7208 42.1595 57.7208 44.937C57.7208 47.7146 59.9793 49.9731 62.7568 49.9731C65.5344 49.9731 67.7929 47.7146 67.7929 44.937C67.7929 42.1595 65.5344 39.901 62.7568 39.901Z" fill="#808080"/>
    </g>
    <defs>
        <clipPath id="clip0_207_7693">
            <rect width="86" height="86" fill="white"/>
        </clipPath>
    </defs>
</svg>
