<svg width="13" height="22" viewBox="0 0 13 22" fill="none" xmlns="http://www.w3.org/2000/svg">
<path d="M4.90052 10.9999L12.0505 18.1499C12.3866 18.486 12.5547 18.9138 12.5547 19.4332C12.5547 19.9526 12.3866 20.3804 12.0505 20.7165C11.7144 21.0526 11.2866 21.2207 10.7672 21.2207C10.2477 21.2207 9.81996 21.0526 9.48385 20.7165L1.05052 12.2832C0.867188 12.0999 0.737021 11.9013 0.660022 11.6874C0.583022 11.4735 0.545133 11.2443 0.546354 10.9999C0.547577 10.7554 0.585466 10.5263 0.660022 10.3124C0.734577 10.0985 0.864744 9.89987 1.05052 9.71654L9.48386 1.2832C9.81997 0.947094 10.2477 0.779035 10.7672 0.779035C11.2866 0.779035 11.7144 0.947094 12.0505 1.2832C12.3866 1.61932 12.5547 2.04709 12.5547 2.56654C12.5547 3.08598 12.3866 3.51376 12.0505 3.84987L4.90052 10.9999Z" fill="black"/>
</svg>
