<svg width="13" height="22" viewBox="0 0 13 22" fill="none" xmlns="http://www.w3.org/2000/svg">
<path d="M8.09948 11.0001L0.949479 3.85013C0.613367 3.51402 0.445313 3.08624 0.445313 2.5668C0.445313 2.04735 0.613367 1.61957 0.949479 1.28346C1.28559 0.947352 1.71337 0.779297 2.23281 0.779297C2.75226 0.779297 3.18004 0.947352 3.51615 1.28346L11.9495 9.7168C12.1328 9.90013 12.263 10.0987 12.34 10.3126C12.417 10.5265 12.4549 10.7557 12.4536 11.0001C12.4524 11.2446 12.4145 11.4737 12.34 11.6876C12.2654 11.9015 12.1353 12.1001 11.9495 12.2835L3.51615 20.7168C3.18004 21.0529 2.75226 21.221 2.23281 21.221C1.71337 21.221 1.28559 21.0529 0.949479 20.7168C0.613367 20.3807 0.445313 19.9529 0.445313 19.4335C0.445313 18.914 0.613367 18.4862 0.949479 18.1501L8.09948 11.0001Z" fill="black"/>
</svg>
