<svg width="1920" height="953" viewBox="0 0 1920 953" fill="none" xmlns="http://www.w3.org/2000/svg">
<path d="M1920 0V727.805C1766.09 693.33 1644.28 704.404 1554.5 725.327C1532.48 730.454 1513.86 735.838 1497.18 741.259C1432.63 762.255 1397.17 783.865 1306.5 794.008C1119.07 814.98 1089.3 742.927 894.5 742.498C669.48 742.007 663.68 838.049 501.5 800.14C385.82 773.097 346.29 714.314 215.7 681.912C205.84 679.459 195.47 677.165 184.5 675.043C112.43 661.111 48.99 661.356 0 665.661V69.9928C57.09 85.6789 133.07 99.0962 221.5 93.7121C314.75 88.0337 349.62 65.8229 399.7 47.1443C423.54 38.2526 450.83 30.1581 489.5 25.0316C562.69 15.3182 616.64 24.1853 665.57 38.8535C758.94 66.8409 833.98 115.972 989.5 97.3914C1097.18 84.5261 1079.47 58.7832 1187.5 49.5603C1363.33 34.5365 1417.33 102.113 1582.5 74.0891C1659.95 60.9417 1656.51 44.6546 1768.5 21.3523C1824.77 9.6398 1875.94 3.28685 1920 0Z" fill="#FFF9EE"/>
<path d="M1921 144V871.805C1767.09 837.33 1645.28 848.404 1555.5 869.327C1533.48 874.454 1514.86 879.838 1498.18 885.259C1433.63 906.255 1398.17 927.865 1307.5 938.008C1120.07 958.98 1090.3 886.927 895.5 886.498C670.48 886.007 664.68 982.049 502.5 944.14C386.82 917.097 347.29 858.314 216.7 825.912C206.84 823.459 196.47 821.165 185.5 819.043C113.43 805.111 49.99 805.356 1 809.661V213.993C58.09 229.679 134.07 243.096 222.5 237.712C315.75 232.034 350.62 209.823 400.7 191.144C424.54 182.253 451.83 174.158 490.5 169.032C563.69 159.318 617.64 168.185 666.57 182.854C759.94 210.841 834.98 259.972 990.5 241.391C1098.18 228.526 1080.47 202.783 1188.5 193.56C1364.33 178.536 1418.33 246.113 1583.5 218.089C1660.95 204.942 1657.51 188.655 1769.5 165.352C1825.77 153.64 1876.94 147.287 1921 144Z" fill="#FFF9EE"/>
</svg>
