<svg width="24" height="24" viewBox="0 0 24 24" fill="none" xmlns="http://www.w3.org/2000/svg">
<path fill-rule="evenodd" clip-rule="evenodd" d="M2.5998 2.70033C2.76532 2.47929 3.07869 2.43428 3.29973 2.5998C3.88392 3.03726 4.7345 3.85894 5.44266 4.93466C6.15094 6.01057 6.74003 7.37655 6.74003 8.8922V8.90846V8.92475V8.94106V8.9574V8.97376V8.99015V9.00657V9.02301V9.03947V9.05596V9.07248V9.08902V9.10559V9.12217V9.13879V9.15543V9.17209V9.18877V9.20548V9.22222V9.23897V9.25575V9.27256V9.28938V9.30623V9.3231V9.33999V9.35691V9.37385V9.39081V9.40779V9.42479V9.44181V9.45886V9.47593V9.49301V9.51012V9.52725V9.5444V9.56157V9.57876V9.59597V9.6132V9.63046V9.64773V9.66501V9.68232V9.69965V9.717V9.73436V9.75175V9.76915V9.78657V9.80401V9.82147V9.83895V9.85644V9.87395V9.89148V9.90903V9.92659V9.94417V9.96177V9.97938V9.99701V10.0147V10.0323V10.05V10.0677V10.0854V10.1031V10.1209V10.1386V10.1564V10.1742V10.192V10.2098V10.2276V10.2455V10.2633V10.2812V10.2991V10.317V10.3349V10.3528V10.3708V10.3887V10.4067V10.4247V10.4427V10.4607V10.4787V10.4967V10.5148V10.5328V10.5509V10.569V10.5871V10.6052V10.6233V10.6414V10.6595V10.6777V10.6958V10.714V10.7322V10.7503V10.7685V10.7867V10.805V10.8232V10.8414V10.8597V10.8779V10.8962V10.9144V10.9327V10.951V10.9693V10.9876V11.0059V11.0242V11.0425V11.0609V11.0792V11.0975V11.1159V11.1343V11.1526V11.171V11.1894V11.2078V11.2261V11.2445V11.2629V11.2814V11.2998V11.3182V11.3366V11.355V11.3735V11.3919V11.4103V11.4288V11.4472V11.4657V11.4842V11.5026V11.5211V11.5396V11.558V11.5765V11.595V11.6135V11.6319V11.6504V11.6689V11.6874V11.7059V11.7244V11.7429V11.7614V11.7799V11.7984V11.8169V11.8354V11.8539V11.8724V11.8909V11.9094V11.9279V11.9464V11.9649V11.9834V12.0019V12.0204V12.0389V12.0574V12.0759V12.0944V12.1129V12.1314V12.1499V12.1684V12.1869V12.2053V12.2238V12.2423V12.2608V12.2793V12.2977V12.3162V12.3347V12.3531V12.3716V12.3901V12.4085V12.427V12.4454V12.4638V12.4823V12.5007V12.5191V12.5375V12.556V12.5744V12.5928V12.6112V12.6296V12.6479V12.6663V12.6847V12.7031V12.7214V12.7398V12.7581V12.7765V12.7948V12.8131V12.8315V12.8498V12.8681V12.8864V12.9046V12.9229V12.9412V12.9595V12.9777V12.996V13.0142V13.0324V13.0506V13.0688V13.087V13.1052V13.1234V13.1416V13.1597V13.1779V13.196V13.2141V13.2323V13.2504V13.2684V13.2865V13.3046V13.3227V13.3407V13.3587V13.3768V13.3948V13.4128V13.4307V13.4487V13.4667V13.4846V13.5026V13.5205V13.5384V13.5563V13.5742V13.592V13.6099V13.6277V13.6455V13.6633V13.6811V13.6989V13.7167V13.7344V13.7521V13.7699V13.7876V13.8052V13.8229V13.8406V13.8582V13.8758V13.8934V13.911V13.9286V13.9461V13.9637V13.9812V13.9987V14.0162V14.0336V14.0511V14.0685V14.0859V14.1033V14.1207V14.138V14.1554V14.1727V14.19V14.2072V14.2245V14.2417V14.259V14.2761V14.2933V14.3105V14.3276V14.3447V14.3618V14.3789V14.396V14.413V14.43V14.447V14.464V14.4809V14.4978V14.5147V14.5316V14.5485V14.5653V14.5821V14.5989V14.6156V14.6324V14.6491V14.6658V14.6825V14.6991V14.7157V14.7323V14.7489V14.7655V14.782V14.7985V14.815V14.8314V14.8478V14.8642V14.8806V14.8969V14.9133V14.9296V14.9458V14.9621V14.9783V14.9945V15.0106V15.0268V15.0429V15.059V15.075V15.091V15.107V15.123V15.139V15.1549V15.1708V15.1866V15.2024V15.2182V15.234V15.2497V15.2655V15.2811V15.2968V15.3124V15.328V15.3436V15.3591V15.3746V15.3901V15.4055V15.4209V15.4363V15.4517V15.467V15.4823V15.4975V15.5127V15.5279V15.5431V15.5582V15.5733V15.5883V15.6034V15.6184V15.6333V15.6483V15.6632V15.678V15.6928V15.7076V15.7224V15.7371V15.7518V15.7665V15.7811V15.7957V15.8102V15.8247V15.8392V15.8537V15.8681V15.8825V15.8968V15.9111V15.9254V15.9396V15.9538V15.968V15.9821V15.9962V16.0102V16.0242V16.0382V16.0521V16.066V16.0799V16.0937V16.1075V16.1212V16.1349V16.1486V16.1622V16.1758V16.1894V16.2029V16.2164V16.2298V16.2432V16.2565V16.2699V16.2831V16.2964V16.3095V16.3227V16.3358V16.3489V16.3619V16.3749V16.3878V16.4007V16.4136V16.4264V16.4392V16.4519V16.4646V16.4773V16.4899V16.5025V16.515V16.5275V16.5399V16.5523V16.5646V16.577V16.5892V16.6014V16.6136V16.6257V16.6378V16.6499V16.6619V16.6738V16.6857V16.6976V16.7094V16.7106H16.9084C16.9345 15.8276 17.0273 14.3528 17.2674 12.9661C17.4324 12.0126 18.064 10.9511 18.7252 10.0518C19.0864 9.56036 19.472 9.09697 19.8286 8.699H8.04003C7.76389 8.699 7.54003 8.47514 7.54003 8.199C7.54003 7.92286 7.76389 7.699 8.04003 7.699H21C21.204 7.699 21.3875 7.82289 21.4638 8.01205C21.54 8.20121 21.4937 8.41774 21.3468 8.5592C20.8844 9.00442 20.1658 9.78041 19.5309 10.6441C18.884 11.5239 18.3756 12.4265 18.2527 13.1367C17.971 14.764 17.9 16.5363 17.9 17.2106C17.9 17.4867 17.6762 17.7106 17.4 17.7106H6.24003C5.96389 17.7106 5.74003 17.4867 5.74003 17.2106V17.2011V17.1915V17.1819V17.1722V17.1625V17.1527V17.1429V17.1331V17.1231V17.1132V17.1031V17.0931V17.0829V17.0728V17.0625V17.0523V17.0419V17.0315V17.0211V17.0106V17.0001V16.9895V16.9789V16.9682V16.9575V16.9467V16.9359V16.925V16.9141V16.9031V16.8921V16.8811V16.8699V16.8588V16.8476V16.8363V16.825V16.8137V16.8023V16.7908V16.7793V16.7678V16.7562V16.7446V16.7329V16.7212V16.7094V16.6976V16.6857V16.6738V16.6619V16.6499V16.6378V16.6257V16.6136V16.6014V16.5892V16.577V16.5646V16.5523V16.5399V16.5275V16.515V16.5025V16.4899V16.4773V16.4646V16.4519V16.4392V16.4264V16.4136V16.4007V16.3878V16.3749V16.3619V16.3489V16.3358V16.3227V16.3095V16.2964V16.2831V16.2699V16.2565V16.2432V16.2298V16.2164V16.2029V16.1894V16.1758V16.1622V16.1486V16.1349V16.1212V16.1075V16.0937V16.0799V16.066V16.0521V16.0382V16.0242V16.0102V15.9962V15.9821V15.968V15.9538V15.9396V15.9254V15.9111V15.8968V15.8825V15.8681V15.8537V15.8392V15.8247V15.8102V15.7957V15.7811V15.7665V15.7518V15.7371V15.7224V15.7076V15.6928V15.678V15.6632V15.6483V15.6333V15.6184V15.6034V15.5883V15.5733V15.5582V15.5431V15.5279V15.5127V15.4975V15.4823V15.467V15.4517V15.4363V15.4209V15.4055V15.3901V15.3746V15.3591V15.3436V15.328V15.3124V15.2968V15.2811V15.2655V15.2497V15.234V15.2182V15.2024V15.1866V15.1708V15.1549V15.139V15.123V15.107V15.091V15.075V15.059V15.0429V15.0268V15.0106V14.9945V14.9783V14.9621V14.9458V14.9296V14.9133V14.8969V14.8806V14.8642V14.8478V14.8314V14.815V14.7985V14.782V14.7655V14.7489V14.7323V14.7157V14.6991V14.6825V14.6658V14.6491V14.6324V14.6156V14.5989V14.5821V14.5653V14.5485V14.5316V14.5147V14.4978V14.4809V14.464V14.447V14.43V14.413V14.396V14.3789V14.3618V14.3447V14.3276V14.3105V14.2933V14.2761V14.259V14.2417V14.2245V14.2072V14.19V14.1727V14.1554V14.138V14.1207V14.1033V14.0859V14.0685V14.0511V14.0336V14.0162V13.9987V13.9812V13.9637V13.9461V13.9286V13.911V13.8934V13.8758V13.8582V13.8406V13.8229V13.8052V13.7876V13.7699V13.7521V13.7344V13.7167V13.6989V13.6811V13.6633V13.6455V13.6277V13.6099V13.592V13.5742V13.5563V13.5384V13.5205V13.5026V13.4846V13.4667V13.4487V13.4307V13.4128V13.3948V13.3768V13.3587V13.3407V13.3227V13.3046V13.2865V13.2684V13.2504V13.2323V13.2141V13.196V13.1779V13.1597V13.1416V13.1234V13.1052V13.087V13.0688V13.0506V13.0324V13.0142V12.996V12.9777V12.9595V12.9412V12.9229V12.9046V12.8864V12.8681V12.8498V12.8315V12.8131V12.7948V12.7765V12.7581V12.7398V12.7214V12.7031V12.6847V12.6663V12.6479V12.6296V12.6112V12.5928V12.5744V12.556V12.5375V12.5191V12.5007V12.4823V12.4638V12.4454V12.427V12.4085V12.3901V12.3716V12.3531V12.3347V12.3162V12.2977V12.2793V12.2608V12.2423V12.2238V12.2053V12.1869V12.1684V12.1499V12.1314V12.1129V12.0944V12.0759V12.0574V12.0389V12.0204V12.0019V11.9834V11.9649V11.9464V11.9279V11.9094V11.8909V11.8724V11.8539V11.8354V11.8169V11.7984V11.7799V11.7614V11.7429V11.7244V11.7059V11.6874V11.6689V11.6504V11.6319V11.6135V11.595V11.5765V11.558V11.5396V11.5211V11.5026V11.4842V11.4657V11.4472V11.4288V11.4103V11.3919V11.3735V11.355V11.3366V11.3182V11.2998V11.2814V11.2629V11.2445V11.2261V11.2078V11.1894V11.171V11.1526V11.1343V11.1159V11.0975V11.0792V11.0609V11.0425V11.0242V11.0059V10.9876V10.9693V10.951V10.9327V10.9144V10.8962V10.8779V10.8597V10.8414V10.8232V10.805V10.7867V10.7685V10.7503V10.7322V10.714V10.6958V10.6777V10.6595V10.6414V10.6233V10.6052V10.5871V10.569V10.5509V10.5328V10.5148V10.4967V10.4787V10.4607V10.4427V10.4247V10.4067V10.3887V10.3708V10.3528V10.3349V10.317V10.2991V10.2812V10.2633V10.2455V10.2276V10.2098V10.192V10.1742V10.1564V10.1386V10.1209V10.1031V10.0854V10.0677V10.05V10.0323V10.0147V9.99701V9.97938V9.96177V9.94417V9.92659V9.90903V9.89148V9.87395V9.85644V9.83895V9.82147V9.80401V9.78657V9.76915V9.75175V9.73436V9.717V9.69965V9.68232V9.66501V9.64773V9.63046V9.6132V9.59597V9.57876V9.56157V9.5444V9.52725V9.51012V9.49301V9.47593V9.45886V9.44181V9.42479V9.40779V9.39081V9.37385V9.35691V9.33999V9.3231V9.30623V9.28938V9.27256V9.25575V9.23897V9.22222V9.20548V9.18877V9.17209V9.15543V9.13879V9.12217V9.10559V9.08902V9.07248V9.05596V9.03947V9.02301V9.00657V8.99015V8.97376V8.9574V8.94106V8.92475V8.90846V8.8922C5.74003 7.63506 5.24912 6.45932 4.6074 5.48452C3.96556 4.50955 3.19614 3.77153 2.70033 3.40026C2.47929 3.23474 2.43428 2.92137 2.5998 2.70033ZM7.73713 20C7.85463 20 7.97097 19.9769 8.07953 19.9319C8.18808 19.887 8.28672 19.8211 8.3698 19.738C8.45289 19.6549 8.51879 19.5562 8.56376 19.4477C8.60872 19.3391 8.63187 19.2228 8.63187 19.1053C8.63187 18.8292 8.85572 18.6053 9.13187 18.6053C9.40801 18.6053 9.63187 18.8292 9.63187 19.1053C9.63187 19.3541 9.58286 19.6005 9.48764 19.8304C9.39242 20.0603 9.25285 20.2691 9.07691 20.4451C8.90097 20.621 8.69209 20.7606 8.46221 20.8558C8.23233 20.951 7.98595 21 7.73713 21C7.48831 21 7.24192 20.951 7.01204 20.8558C6.78216 20.7606 6.57329 20.621 6.39735 20.4451C6.2214 20.2691 6.08184 20.0603 5.98662 19.8304C5.8914 19.6005 5.84239 19.3541 5.84239 19.1053C5.84239 18.8292 6.06625 18.6053 6.34239 18.6053C6.61853 18.6053 6.84239 18.8292 6.84239 19.1053C6.84239 19.2228 6.86553 19.3391 6.9105 19.4477C6.95546 19.5562 7.02137 19.6549 7.10445 19.738C7.18754 19.8211 7.28617 19.887 7.39473 19.9319C7.50328 19.9769 7.61963 20 7.73713 20ZM15.6586 19.9319C15.5501 19.9769 15.4337 20 15.3162 20C15.1987 20 15.0824 19.9769 14.9738 19.9319C14.8653 19.887 14.7666 19.8211 14.6836 19.738C14.6005 19.6549 14.5346 19.5562 14.4896 19.4477C14.4446 19.3391 14.4215 19.2228 14.4215 19.1053C14.4215 18.8292 14.1976 18.6053 13.9215 18.6053C13.6454 18.6053 13.4215 18.8292 13.4215 19.1053C13.4215 19.3541 13.4705 19.6005 13.5657 19.8304C13.6609 20.0603 13.8005 20.2691 13.9764 20.4451C14.1524 20.621 14.3613 20.7606 14.5911 20.8558C14.821 20.951 15.0674 21 15.3162 21C15.5651 21 15.8114 20.951 16.0413 20.8558C16.2712 20.7606 16.4801 20.621 16.656 20.4451C16.832 20.2691 16.9715 20.0603 17.0667 19.8304C17.162 19.6005 17.211 19.3541 17.211 19.1053C17.211 18.8292 16.9871 18.6053 16.711 18.6053C16.4348 18.6053 16.211 18.8292 16.211 19.1053C16.211 19.2228 16.1878 19.3391 16.1429 19.4477C16.0979 19.5562 16.032 19.6549 15.9489 19.738C15.8658 19.8211 15.7672 19.887 15.6586 19.9319Z" fill="black"/>
</svg>
