<svg width="24" height="24" viewBox="0 0 24 24" fill="none" xmlns="http://www.w3.org/2000/svg">
<path fill-rule="evenodd" clip-rule="evenodd" d="M16.3394 3.05273H7.66097C6.50148 3.05273 5.56152 3.99269 5.56152 5.15218C5.56152 5.24997 5.56821 5.3462 5.58115 5.44043H18.4192C18.4322 5.3462 18.4389 5.24997 18.4389 5.15218C18.4389 3.99269 17.4989 3.05273 16.3394 3.05273ZM19.2979 5.44043C20.4024 5.44043 21.2979 6.33586 21.2979 7.44043V18.3178C21.2979 19.4223 20.4024 20.3178 19.2979 20.3178H4.70117C3.5966 20.3178 2.70117 19.4223 2.70117 18.3178V7.44043C2.70117 6.33586 3.5966 5.44043 4.70117 5.44043H4.57475C4.566 5.34552 4.56152 5.24937 4.56152 5.15218C4.56152 3.4404 5.94919 2.05273 7.66097 2.05273H16.3394C18.0512 2.05273 19.4389 3.4404 19.4389 5.15218C19.4389 5.24937 19.4344 5.34552 19.4256 5.44043H19.2979ZM19.2979 6.44043H4.70117C4.14889 6.44043 3.70117 6.88814 3.70117 7.44043V18.3178C3.70117 18.8701 4.14889 19.3178 4.70117 19.3178H19.2979C19.8501 19.3178 20.2979 18.8701 20.2979 18.3178V7.44043C20.2979 6.88814 19.8501 6.44043 19.2979 6.44043ZM7.54102 9.19056C7.81716 9.19056 8.04102 9.41442 8.04102 9.69056C8.04102 10.2105 8.14342 10.7253 8.34239 11.2056C8.54135 11.686 8.83298 12.1224 9.20061 12.4901C9.56825 12.8577 10.0047 13.1493 10.485 13.3483C10.9654 13.5473 11.4802 13.6497 12.0001 13.6497C12.52 13.6497 13.0349 13.5473 13.5152 13.3483C13.9956 13.1493 14.432 12.8577 14.7996 12.4901C15.1673 12.1224 15.4589 11.686 15.6579 11.2056C15.8568 10.7253 15.9592 10.2105 15.9592 9.69056C15.9592 9.41442 16.1831 9.19056 16.4592 9.19056C16.7354 9.19056 16.9592 9.41442 16.9592 9.69056C16.9592 10.3418 16.831 10.9867 16.5818 11.5883C16.3325 12.19 15.9672 12.7367 15.5068 13.1972C15.0463 13.6577 14.4996 14.023 13.8979 14.2722C13.2962 14.5214 12.6514 14.6497 12.0001 14.6497C11.3489 14.6497 10.704 14.5214 10.1024 14.2722C9.50069 14.023 8.954 13.6577 8.49351 13.1972C8.03301 12.7367 7.66772 12.19 7.41851 11.5883C7.16929 10.9867 7.04102 10.3418 7.04102 9.69056C7.04102 9.41442 7.26487 9.19056 7.54102 9.19056Z" fill="black"/>
</svg>
