<svg width="24" height="24" viewBox="0 0 24 24" fill="none" xmlns="http://www.w3.org/2000/svg">
<g clip-path="url(#clip0_216_4453)">
<path d="M21.2675 7.07934H18.1435L16.466 4.67148C16.169 4.2518 15.6795 4 15.1405 4H8.854C8.315 4 7.8255 4.2518 7.5285 4.67148L5.851 7.07934H2.727C1.77 7.07934 1 7.81902 1 8.72656V18.3528C1 19.2603 1.77 20 2.727 20H21.2675C22.2245 20 23 19.2603 23 18.3528V8.72656C23 7.81902 22.2245 7.07934 21.2675 7.07934ZM22.45 18.3528C22.45 18.9718 21.922 19.4754 21.2675 19.4754H2.727C2.0725 19.4754 1.55 18.9718 1.55 18.3528V8.72656C1.55 8.10754 2.0725 7.60393 2.727 7.60393H6.1425L7.985 4.96525C8.1775 4.68721 8.502 4.52459 8.854 4.52459H15.1405C15.4925 4.52459 15.817 4.68721 16.0095 4.96525L17.852 7.60393H21.2675C21.922 7.60393 22.45 8.10754 22.45 8.72656V18.3528Z" fill="black"/>
<path d="M5.46602 8.72119H3.81602C3.66414 8.72119 3.54102 8.83862 3.54102 8.98349C3.54102 9.12835 3.66414 9.24578 3.81602 9.24578H5.46602C5.61789 9.24578 5.74102 9.12835 5.74102 8.98349C5.74102 8.83862 5.61789 8.72119 5.46602 8.72119Z" fill="black"/>
<path d="M12.0004 8.25977C9.11839 8.25977 6.77539 10.4998 6.77539 13.2434C6.77539 15.987 9.11839 18.227 12.0004 18.227C14.8824 18.227 17.2254 15.9922 17.2254 13.2434C17.2254 10.4945 14.8769 8.25977 12.0004 8.25977ZM12.0004 17.7024C9.42089 17.7024 7.32539 15.7037 7.32539 13.2434C7.32539 10.783 9.42089 8.78436 12.0004 8.78436C14.5799 8.78436 16.6754 10.7883 16.6754 13.2434C16.6754 15.6985 14.5744 17.7024 12.0004 17.7024Z" fill="black"/>
<path d="M14.7502 13.2432C14.7447 13.3901 14.6237 13.5055 14.4752 13.5055H12.3412V15.6091C12.3412 15.7507 12.2202 15.8714 12.0662 15.8714C11.9122 15.8661 11.7912 15.7507 11.7912 15.6091V13.5107H9.51967C9.37117 13.5107 9.25017 13.3901 9.25017 13.2484C9.24467 13.1016 9.37117 12.9809 9.51967 12.9809H11.7912V10.8825C11.7912 10.7409 11.9122 10.6255 12.0662 10.6255H12.0772C12.2257 10.6255 12.3412 10.7461 12.3412 10.8825V12.9861H14.4752C14.6237 12.9861 14.7502 13.1016 14.7502 13.2432Z" fill="black"/>
</g>
<defs>
<clipPath id="clip0_216_4453">
<rect width="22" height="16" fill="white" transform="translate(1 4)"/>
</clipPath>
</defs>
</svg>
