<?xml version="1.0" encoding="UTF-8"?>
<svg id="Layer_2" data-name="Layer 2" xmlns="http://www.w3.org/2000/svg" viewBox="0 0 800 800">
  <defs>
    <style>
      .cls-1 {
        fill: #dbb875;
        stroke-width: 0px;
      }
    </style>
  </defs>
  <g id="Capa_1" data-name="Capa 1">
    <g>
      <g>
        <path class="cls-1" d="m400,0C178.78,0,0,178.78,0,400s178.78,400,400,400,400-178.78,400-400S621.22,0,400,0Zm0,733.55c-183.84,0-333.55-149.71-333.55-333.55S216.16,66.45,400,66.45s333.55,149.71,333.55,333.55-149.71,333.55-333.55,333.55Z"/>
        <path class="cls-1" d="m434.12,365.88v-156.57c0-18.78-15.35-34.12-34.12-34.12s-34.12,15.35-34.12,34.12v190.69c0,18.78,15.35,34.12,34.12,34.12h34.19l-.06-68.24Z"/>
      </g>
      <path class="cls-1" d="m393.1,442.15l86.27,86.27c11.04,11.04,31.52,8.44,44.91-6.29,12-13.2,13.8-31.51,3.79-41.52l-105.57-105.57c-10.42-10.42-29.83-8.06-43.13,5.24l-3.43,3.43c-11.42,11.42-13.42,27.93-4.46,36.86l21.62,21.57Z"/>
    </g>
  </g>
</svg>