<svg width="25" height="61" viewBox="0 0 25 61" fill="none" xmlns="http://www.w3.org/2000/svg">
<g clip-path="url(#clip0_207_7526)">
<path d="M21.3889 23.5682H19.1889C20.7972 22.9554 21.9444 21.3999 21.9444 19.5838V4.26168C21.9444 1.91318 20.0278 0 17.675 0H7.60278C5.25 0 3.33333 1.91318 3.33333 4.26168V19.5838C3.33333 21.3999 4.48056 22.9554 6.08889 23.5682H3.61111C1.61944 23.5682 0 25.1847 0 27.1727V57.3955C0 59.3835 1.61944 61 3.61111 61H21.3889C23.3806 61 25 59.3835 25 57.3955V27.1727C25 25.1847 23.3806 23.5682 21.3889 23.5682ZM5 4.26168C5 2.82818 6.16667 1.66364 7.60278 1.66364H17.675C19.1111 1.66364 20.2778 2.82818 20.2778 4.26168V4.71364H5V4.26168ZM5 6.37727H20.2778V10.5364H5V6.37727ZM5 12.2H20.2778V16.3591H5V12.2ZM5 19.5838V18.0227H20.2778V19.5838C20.2778 21.0173 19.1111 22.1818 17.675 22.1818H7.60278C6.16667 22.1818 5 21.0173 5 19.5838ZM23.3333 57.3955C23.3333 58.4657 22.4611 59.3364 21.3889 59.3364H3.61111C2.53889 59.3364 1.66667 58.4657 1.66667 57.3955V27.1727C1.66667 26.1025 2.53889 25.2318 3.61111 25.2318H21.3889C22.4611 25.2318 23.3333 26.1025 23.3333 27.1727V57.3955Z" fill="black"/>
<path d="M11.112 35.2137C11.112 34.7543 10.7389 34.3818 10.2786 34.3818C9.81841 34.3818 9.44531 34.7543 9.44531 35.2137V37.1546C9.44531 37.614 9.81841 37.9864 10.2786 37.9864C10.7389 37.9864 11.112 37.614 11.112 37.1546V35.2137Z" fill="black"/>
<path d="M16.112 35.2137C16.112 34.7543 15.7389 34.3818 15.2786 34.3818C14.8184 34.3818 14.4453 34.7543 14.4453 35.2137V37.1546C14.4453 37.614 14.8184 37.9864 15.2786 37.9864C15.7389 37.9864 16.112 37.614 16.112 37.1546V35.2137Z" fill="black"/>
<path d="M17.2528 30.7773H7.74722C6.23333 30.7773 5 32.0084 5 33.5196V43.0078C5 44.519 6.23333 45.7501 7.74722 45.7501H17.2528C18.7667 45.7501 20 44.519 20 43.0078V33.5196C20 32.0084 18.7667 30.7773 17.2528 30.7773ZM6.66667 33.5196C6.66667 32.9234 7.15 32.441 7.74722 32.441H17.2528C17.85 32.441 18.3333 32.9234 18.3333 33.5196V41.3137H6.66667V33.5196ZM18.3333 43.0078C18.3333 43.604 17.85 44.0864 17.2528 44.0864H7.74722C7.15 44.0864 6.66667 43.604 6.66667 43.0078V42.9773H18.3333V43.0078Z" fill="black"/>
</g>
<defs>
<clipPath id="clip0_207_7526">
<rect width="25" height="61" fill="white"/>
</clipPath>
</defs>
</svg>
