<svg width="24" height="24" viewBox="0 0 24 24" fill="none" xmlns="http://www.w3.org/2000/svg">
<path fill-rule="evenodd" clip-rule="evenodd" d="M4.35355 3.35348C4.15829 3.15822 3.84171 3.15822 3.64645 3.35348C3.45118 3.54874 3.45118 3.86532 3.64645 4.06058L11.5858 11.9999L3.67589 19.9098C3.48063 20.1051 3.48063 20.4217 3.67589 20.6169C3.87115 20.8122 4.18774 20.8122 4.383 20.6169L12.2929 12.707L19.9099 20.324C20.1052 20.5193 20.4217 20.5193 20.617 20.324C20.8123 20.1288 20.8123 19.8122 20.617 19.6169L13 11.9999L20.6465 4.35348C20.8417 4.15822 20.8417 3.84163 20.6465 3.64637C20.4512 3.45111 20.1346 3.45111 19.9394 3.64637L12.2929 11.2928L4.35355 3.35348Z" fill="black"/>
</svg>
