<svg width="34" height="34" viewBox="0 0 34 34" fill="none" xmlns="http://www.w3.org/2000/svg">
    <path d="M17.0374 33.9976H16.9626C7.60952 33.9976 0 26.3886 0 17.0362V16.9614C0 7.609 7.60952 0 16.9626 0H17.0374C26.3905 0 34 7.609 34 16.9614V17.0362C34 26.3886 26.3905 33.9976 17.0374 33.9976ZM16.9626 1.15078C8.24364 1.15078 1.15086 8.24308 1.15086 16.9614V17.0362C1.15086 25.7545 8.24364 32.8468 16.9626 32.8468H17.0374C25.7564 32.8468 32.8491 25.7545 32.8491 17.0362V16.9614C32.8491 8.24308 25.7564 1.15078 17.0374 1.15078H16.9626Z" fill="white"/>
    <path d="M19.2888 13.187V16.7648H23.7151L23.0142 21.5843H19.2888V32.6882C18.5419 32.7917 17.7777 32.8458 17.0021 32.8458C16.1067 32.8458 15.2274 32.7745 14.3712 32.6364V21.5843H10.2891V16.7648H14.3712V12.3872C14.3712 9.67135 16.5728 7.46875 19.29 7.46875V7.47105C19.298 7.47105 19.3049 7.46875 19.313 7.46875H23.7162V11.6369H20.839C19.9839 11.6369 19.29 12.3308 19.29 13.1858L19.2888 13.187Z" fill="white"/>
</svg>
