<svg width="34" height="34" viewBox="0 0 34 34" fill="none" xmlns="http://www.w3.org/2000/svg">
<path d="M17.0374 34H16.9626C7.60952 34 0 26.3905 0 17.0374V16.9626C0 7.60954 7.60952 0 16.9626 0H17.0374C26.3905 0 34 7.60954 34 16.9626V17.0374C34 26.3905 26.3905 34 17.0374 34ZM16.9626 1.15087C8.24364 1.15087 1.15086 8.24366 1.15086 16.9626V17.0374C1.15086 25.7564 8.24364 32.8491 16.9626 32.8491H17.0374C25.7564 32.8491 32.8491 25.7564 32.8491 17.0374V16.9626C32.8491 8.24366 25.7564 1.15087 17.0374 1.15087H16.9626Z" fill="#383D38"/>
<path d="M19.2869 13.1874V16.7654H23.7131L23.0122 21.5853H19.2869V32.6899C18.54 32.7935 17.7758 32.8476 17.0001 32.8476C16.1047 32.8476 15.2255 32.7763 14.3692 32.6382V21.5853H10.2871V16.7654H14.3692V12.3875C14.3692 9.6715 16.5708 7.46875 19.288 7.46875V7.47105C19.2961 7.47105 19.303 7.46875 19.311 7.46875H23.7143V11.6372H20.8371C19.982 11.6372 19.288 12.3311 19.288 13.1862L19.2869 13.1874Z" fill="#383D38"/>
</svg>
