<svg width="24" height="24" viewBox="0 0 24 24" fill="none" xmlns="http://www.w3.org/2000/svg">
<path d="M8.65725 14.6666C8.434 13.3142 7.26075 12.2856 5.85 12.2856C4.27775 12.2856 3 13.5666 3 15.1428C3 16.719 4.27775 17.9999 5.85 17.9999C7.26075 17.9999 8.434 16.9714 8.65725 15.619H21.525V14.6666H8.65725ZM5.85 17.0475C4.80025 17.0475 3.95 16.1952 3.95 15.1428C3.95 14.0904 4.80025 13.238 5.85 13.238C6.89975 13.238 7.75 14.0904 7.75 15.1428C7.75 16.1952 6.89975 17.0475 5.85 17.0475Z" fill="white"/>
<path d="M18.675 6C17.2642 6 16.091 7.02857 15.8678 8.38095H3V9.33333H15.8678C16.091 10.6857 17.2642 11.7143 18.675 11.7143C20.2472 11.7143 21.525 10.4333 21.525 8.85714C21.525 7.28095 20.2472 6 18.675 6ZM18.675 10.7619C17.6252 10.7619 16.775 9.90952 16.775 8.85714C16.775 7.80476 17.6252 6.95238 18.675 6.95238C19.7248 6.95238 20.575 7.80476 20.575 8.85714C20.575 9.90952 19.7248 10.7619 18.675 10.7619Z" fill="white"/>
</svg>
