<svg width="89" height="44" viewBox="0 0 89 44" fill="none" xmlns="http://www.w3.org/2000/svg">
<path fill-rule="evenodd" clip-rule="evenodd" d="M18.8477 42.6329C19.6135 43.356 20.6221 43.7542 21.6868 43.7542H83.3247C86.454 43.7542 89 41.2612 89 38.197V5.5572C89 2.493 86.454 0 83.3247 0H21.6868C20.6221 0 19.6135 0.398149 18.8477 1.11988L1.66236 17.9477C0.590517 18.9972 0 20.3928 0 21.8771C0 23.3614 0.590517 24.757 1.66236 25.8065L18.8477 42.6329ZM11.9327 25.8547C14.1295 25.8547 15.9104 24.0739 15.9104 21.8771C15.9104 19.6803 14.1295 17.8994 11.9327 17.8994C9.73593 17.8994 7.95508 19.6803 7.95508 21.8771C7.95508 24.0739 9.73593 25.8547 11.9327 25.8547Z" fill="white"/>
</svg>
