<svg width="34" height="34" viewBox="0 0 34 34" fill="none" xmlns="http://www.w3.org/2000/svg">
    <path d="M17.0374 33.9976H16.9626C7.60952 33.9976 0 26.3886 0 17.0362V16.9614C0 7.60897 7.60952 0 16.9626 0H17.0374C26.3905 0 34 7.60897 34 16.9614V17.0362C34 26.3886 26.3905 33.9976 17.0374 33.9976ZM16.9626 1.15078C8.24365 1.15078 1.15086 8.24305 1.15086 16.9614V17.0362C1.15086 25.7545 8.24365 32.8468 16.9626 32.8468H17.0374C25.7564 32.8468 32.8491 25.7545 32.8491 17.0362V16.9614C32.8491 8.24305 25.7564 1.15078 17.0374 1.15078H16.9626Z" fill="white"/>
    <path d="M22.0812 7.25781H11.9168C9.10869 7.25781 6.82422 9.54212 6.82422 12.35V21.6483C6.82422 24.4563 9.10869 26.7406 11.9168 26.7406H22.0812C24.8893 26.7406 27.1738 24.4563 27.1738 21.6483V12.35C27.1738 9.54212 24.8893 7.25781 22.0812 7.25781ZM8.62072 12.35C8.62072 10.5329 10.0996 9.05417 11.9168 9.05417H22.0812C23.8985 9.05417 25.3773 10.5329 25.3773 12.35V21.6483C25.3773 23.4654 23.8985 24.9442 22.0812 24.9442H11.9168C10.0996 24.9442 8.62072 23.4654 8.62072 21.6483V12.35Z" fill="white"/>
    <path d="M16.9987 21.7349C19.61 21.7349 21.7356 19.6106 21.7356 16.9983C21.7356 14.3861 19.6111 12.2617 16.9987 12.2617C14.3862 12.2617 12.2617 14.3861 12.2617 16.9983C12.2617 19.6106 14.3862 21.7349 16.9987 21.7349ZM16.9987 14.0592C18.6203 14.0592 19.9391 15.378 19.9391 16.9995C19.9391 18.6209 18.6203 19.9397 16.9987 19.9397C15.3771 19.9397 14.0582 18.6209 14.0582 16.9995C14.0582 15.378 15.3771 14.0592 16.9987 14.0592Z" fill="white"/>
    <path d="M22.1747 13.028C22.8779 13.028 23.4511 12.4558 23.4511 11.7513C23.4511 11.0468 22.8791 10.4746 22.1747 10.4746C21.4704 10.4746 20.8984 11.0468 20.8984 11.7513C20.8984 12.4558 21.4704 13.028 22.1747 13.028Z" fill="white"/>
</svg>
