<svg width="34" height="34" viewBox="0 0 34 34" fill="none" xmlns="http://www.w3.org/2000/svg">
<path d="M17.0374 34H16.9626C7.60952 34 0 26.3905 0 17.0374V16.9626C0 7.60951 7.60952 0 16.9626 0H17.0374C26.3905 0 34 7.60951 34 16.9626V17.0374C34 26.3905 26.3905 34 17.0374 34ZM16.9626 1.15087C8.24365 1.15087 1.15086 8.24363 1.15086 16.9626V17.0374C1.15086 25.7564 8.24365 32.8491 16.9626 32.8491H17.0374C25.7564 32.8491 32.8491 25.7564 32.8491 17.0374V16.9626C32.8491 8.24363 25.7564 1.15087 17.0374 1.15087H16.9626Z" fill="#383D38"/>
<path d="M22.0832 7.25879H11.9187C9.11064 7.25879 6.82617 9.54326 6.82617 12.3514V21.6503C6.82617 24.4584 9.11064 26.7429 11.9187 26.7429H22.0832C24.8913 26.7429 27.1758 24.4584 27.1758 21.6503V12.3514C27.1758 9.54326 24.8913 7.25879 22.0832 7.25879ZM8.62267 12.3514C8.62267 10.5342 10.1015 9.05527 11.9187 9.05527H22.0832C23.9004 9.05527 25.3793 10.5342 25.3793 12.3514V21.6503C25.3793 23.4676 23.9004 24.9464 22.0832 24.9464H11.9187C10.1015 24.9464 8.62267 23.4676 8.62267 21.6503V12.3514Z" fill="#383D38"/>
<path d="M17.0006 21.7366C19.6119 21.7366 21.7376 19.6121 21.7376 16.9996C21.7376 14.3872 19.6131 12.2627 17.0006 12.2627C14.3882 12.2627 12.2637 14.3872 12.2637 16.9996C12.2637 19.6121 14.3882 21.7366 17.0006 21.7366ZM17.0006 14.0603C18.6222 14.0603 19.9411 15.3792 19.9411 17.0008C19.9411 18.6224 18.6222 19.9413 17.0006 19.9413C15.3791 19.9413 14.0602 18.6224 14.0602 17.0008C14.0602 15.3792 15.3791 14.0603 17.0006 14.0603Z" fill="#383D38"/>
<path d="M22.1767 13.0289C22.8799 13.0289 23.453 12.4568 23.453 11.7523C23.453 11.0477 22.881 10.4756 22.1767 10.4756C21.4724 10.4756 20.9004 11.0477 20.9004 11.7523C20.9004 12.4568 21.4724 13.0289 22.1767 13.0289Z" fill="#383D38"/>
</svg>
