<svg width="20" height="19" viewBox="0 0 20 19" fill="none" xmlns="http://www.w3.org/2000/svg">
    <path d="M10 18.325C9.76667 18.325 9.52934 18.2834 9.288 18.2C9.04667 18.1167 8.834 17.9834 8.65 17.8L6.925 16.225C5.15833 14.6084 3.56233 13.0044 2.137 11.413C0.711667 9.82169 -0.000666199 8.06736 4.67508e-07 6.15002C4.67508e-07 4.58336 0.525001 3.27502 1.575 2.22502C2.625 1.17502 3.93333 0.650024 5.5 0.650024C6.38333 0.650024 7.21667 0.837358 8 1.21202C8.78333 1.58669 9.45 2.09936 10 2.75002C10.55 2.10002 11.2167 1.58769 12 1.21302C12.7833 0.838358 13.6167 0.650691 14.5 0.650024C16.0667 0.650024 17.375 1.17502 18.425 2.22502C19.475 3.27502 20 4.58336 20 6.15002C20 8.06669 19.2917 9.82502 17.875 11.425C16.4583 13.025 14.85 14.6334 13.05 16.25L11.35 17.8C11.1667 17.9834 10.9543 18.1167 10.713 18.2C10.4717 18.2834 10.234 18.325 10 18.325ZM9.05 4.75002C8.56667 4.06669 8.05 3.54569 7.5 3.18702C6.95 2.82836 6.28333 2.64936 5.5 2.65002C4.5 2.65002 3.66667 2.98336 3 3.65002C2.33333 4.31669 2 5.15002 2 6.15002C2 7.01669 2.30833 7.93769 2.925 8.91302C3.54167 9.88836 4.27933 10.834 5.138 11.75C5.99667 12.666 6.88 13.5244 7.788 14.325C8.696 15.1257 9.43333 15.784 10 16.3C10.5667 15.7834 11.3043 15.125 12.213 14.325C13.1217 13.525 14.005 12.6667 14.863 11.75C15.721 10.8334 16.4583 9.88769 17.075 8.91302C17.6917 7.93836 18 7.01736 18 6.15002C18 5.15002 17.6667 4.31669 17 3.65002C16.3333 2.98336 15.5 2.65002 14.5 2.65002C13.7167 2.65002 13.05 2.82936 12.5 3.18802C11.95 3.54669 11.4333 4.06736 10.95 4.75002C10.8333 4.91669 10.6917 5.04169 10.525 5.12502C10.3583 5.20836 10.1833 5.25002 10 5.25002C9.81667 5.25002 9.64167 5.20836 9.475 5.12502C9.30833 5.04169 9.16667 4.91669 9.05 4.75002Z" fill="white"/>
</svg>
