<svg width="37" height="33" viewBox="0 0 37 33" fill="none" xmlns="http://www.w3.org/2000/svg">
    <path d="M18.3333 32.4042C17.9056 32.4042 17.4704 32.3278 17.028 32.175C16.5856 32.0222 16.1957 31.7778 15.8583 31.4417L12.6958 28.5542C9.45695 25.5903 6.53095 22.6496 3.91783 19.7322C1.30472 16.8147 -0.00122137 13.5984 8.57098e-07 10.0833C8.57098e-07 7.21111 0.962501 4.8125 2.8875 2.8875C4.8125 0.9625 7.21111 0 10.0833 0C11.7028 0 13.2306 0.343444 14.6667 1.03033C16.1028 1.71722 17.325 2.65711 18.3333 3.85C19.3417 2.65833 20.5639 1.71906 22 1.03217C23.4361 0.345278 24.9639 0.00122222 26.5833 0C29.4556 0 31.8542 0.9625 33.7792 2.8875C35.7042 4.8125 36.6667 7.21111 36.6667 10.0833C36.6667 13.5972 35.3681 16.8208 32.7708 19.7542C30.1736 22.6875 27.225 25.6361 23.925 28.6L20.8083 31.4417C20.4722 31.7778" fill="#DBB875"/>
</svg>
