<svg width="37" height="33" viewBox="0 0 37 33" fill="none" xmlns="http://www.w3.org/2000/svg">
<path d="M18.3333 32.4042C17.9056 32.4042 17.4704 32.3278 17.028 32.175C16.5856 32.0222 16.1957 31.7778 15.8583 31.4417L12.6958 28.5542C9.45695 25.5903 6.53095 22.6496 3.91783 19.7322C1.30472 16.8147 -0.00122137 13.5984 8.57098e-07 10.0833C8.57098e-07 7.21111 0.962501 4.8125 2.8875 2.8875C4.8125 0.9625 7.21111 0 10.0833 0C11.7028 0 13.2306 0.343444 14.6667 1.03033C16.1028 1.71722 17.325 2.65711 18.3333 3.85C19.3417 2.65833 20.5639 1.71906 22 1.03217C23.4361 0.345278 24.9639 0.00122222 26.5833 0C29.4556 0 31.8542 0.9625 33.7792 2.8875C35.7042 4.8125 36.6667 7.21111 36.6667 10.0833C36.6667 13.5972 35.3681 16.8208 32.7708 19.7542C30.1736 22.6875 27.225 25.6361 23.925 28.6L20.8083 31.4417C20.4722 31.7778 20.0829 32.0222 19.6405 32.175C19.1981 32.3278 18.7623 32.4042 18.3333 32.4042ZM16.5917 7.51667C15.7056 6.26389 14.7583 5.30872 13.75 4.65117C12.7417 3.99361 11.5194 3.66544 10.0833 3.66667C8.25 3.66667 6.72222 4.27778 5.5 5.5C4.27778 6.72222 3.66667 8.25 3.66667 10.0833C3.66667 11.6722 4.23195 13.3607 5.3625 15.1488C6.49306 16.9369 7.84545 18.6707 9.41967 20.35C10.9939 22.0293 12.6133 23.6029 14.278 25.0708C15.9427 26.5387 17.2944 27.7457 18.3333 28.6917C19.3722 27.7444 20.7246 26.5375 22.3905 25.0708C24.0564 23.6042 25.6758 22.0306 27.2488 20.35C28.8218 18.6694 30.1736 16.9357 31.3042 15.1488C32.4347 13.3619 33 11.6734 33 10.0833C33 8.25 32.3889 6.72222 31.1667 5.5C29.9444 4.27778 28.4167 3.66667 26.5833 3.66667C25.1472 3.66667 23.925 3.99544 22.9167 4.653C21.9083 5.31056 20.9611 6.26511 20.075 7.51667C19.8611 7.82222 19.6014 8.05139 19.2958 8.20417C18.9903 8.35694 18.6694 8.43333 18.3333 8.43333C17.9972 8.43333 17.6764 8.35694 17.3708 8.20417C17.0653 8.05139 16.8056 7.82222 16.5917 7.51667Z" fill="#DBB875"/>
</svg>
