<?xml version="1.0" encoding="UTF-8"?>
<svg id="_Слой_1" data-name=" Слой 1" xmlns="http://www.w3.org/2000/svg" viewBox="0 0 347.93 533.27">
  <defs>
    <style>
      .cls-1 {
        fill: #fff;
      }

      .cls-2 {
        fill: #dcb977;
      }
    </style>
  </defs>
  <path class="cls-2" d="m341.01,125.9c-4.69-18.59-12.2-35.35-22.59-49.9C294.81,42.93,241-.17,174.42,0c-.15,0-.3,0-.45.01-.15-.01-.31-.01-.46-.01C106.93-.17,53.12,42.93,29.51,76c-10.39,14.55-17.9,31.31-22.59,49.9-26.26,95.03,22.8,237.42,137.82,374.46,8.65,10.61,17.67,21.19,27.08,31.74.14.17.29.34.45.51.41.36.91.6,1.46.64.07.02.15.02.22.02.08,0,.17,0,.25-.02.57-.05,1.08-.3,1.49-.68.13-.13.26-.27.37-.42,9.49-10.64,18.59-21.31,27.31-32.01,114.9-136.97,163.89-279.26,137.64-374.24Zm-165.59,196.09c-.33.01-.67.01-1,.01-.64,0-1.28,0-1.91-.01-80.86-1.03-146.09-66.89-146.09-147.99S91.65,27.04,172.51,26.01c.63-.01,1.27-.01,1.91-.01.33,0,.67,0,1,.01,80.86,1.03,146.09,66.89,146.09,147.99s-65.23,146.96-146.09,147.99Z"/>
  <path class="cls-1" d="m321.51,174c0,81.1-65.23,146.96-146.09,147.99-.33.01-.67.01-1,.01-.64,0-1.28,0-1.91-.01-80.86-1.03-146.09-66.89-146.09-147.99S91.65,27.04,172.51,26.01c.63-.01,1.27-.01,1.91-.01.33,0,.67,0,1,.01,80.86,1.03,146.09,66.89,146.09,147.99Z"/>
</svg>