<svg width="24" height="24" viewBox="0 0 24 24" fill="none" xmlns="http://www.w3.org/2000/svg">
<path fill-rule="evenodd" clip-rule="evenodd" d="M15.0358 5.55551C15.0358 7.23251 13.6764 8.59198 11.9994 8.59198C10.3224 8.59198 8.96289 7.23251 8.96289 5.55551C8.96289 3.87852 10.3224 2.51904 11.9994 2.51904C13.6764 2.51904 15.0358 3.87852 15.0358 5.55551ZM16.0358 5.55551C16.0358 7.78479 14.2286 9.59198 11.9994 9.59198C9.77008 9.59198 7.96289 7.78479 7.96289 5.55551C7.96289 3.32623 9.77008 1.51904 11.9994 1.51904C14.2286 1.51904 16.0358 3.32623 16.0358 5.55551ZM6.6607 14.0567C8.07668 12.6407 9.99717 11.8452 11.9997 11.8452C14.0022 11.8452 15.9227 12.6407 17.3386 14.0567C18.7546 15.4727 19.5501 17.3932 19.5501 19.3957C19.5501 19.6718 19.774 19.8957 20.0501 19.8957C20.3263 19.8957 20.5501 19.6718 20.5501 19.3957C20.5501 17.1279 19.6493 14.9531 18.0458 13.3496C16.4422 11.7461 14.2674 10.8452 11.9997 10.8452C9.73195 10.8452 7.55711 11.7461 5.95359 13.3496C4.35007 14.9531 3.44922 17.1279 3.44922 19.3957C3.44922 19.6718 3.67308 19.8957 3.94922 19.8957C4.22536 19.8957 4.44922 19.6718 4.44922 19.3957C4.44922 17.3932 5.24471 15.4727 6.6607 14.0567Z" fill="black"/>
</svg>
