<svg width="36" height="36" viewBox="0 0 36 36" fill="none" xmlns="http://www.w3.org/2000/svg">
<g clip-path="url(#clip0_265_25779)">
<path d="M26.25 0H9.75C4.365 0 0 4.38 0 9.75V26.25C0 31.635 4.365 36 9.75 36H26.25C31.62 36 36 31.635 36 26.25V9.75C36 4.38 31.62 0 26.25 0ZM34.5 26.25C34.5 30.81 30.795 34.5 26.25 34.5H9.75C5.19 34.5 1.5 30.81 1.5 26.25V9.75C1.5 5.205 5.19 1.5 9.75 1.5H26.25C30.795 1.5 34.5 5.205 34.5 9.75V26.25Z" fill="black"/>
<path d="M25.5 17.25V18.75H18.75V25.5H17.25V18.75H10.5V17.25H17.25V10.5H18.75V17.25H25.5Z" fill="black"/>
</g>
<defs>
<clipPath id="clip0_265_25779">
<rect width="36" height="36" fill="white"/>
</clipPath>
</defs>
</svg>
