<svg width="49" height="37" viewBox="0 0 49 37" fill="none" xmlns="http://www.w3.org/2000/svg">
<g clip-path="url(#clip0_207_7540)">
<path d="M43.0798 0H5.92016C2.65618 0 0 2.65855 0 5.92547V25.6985C0 28.7001 2.24115 31.1871 5.13563 31.5703L4.18776 35.2875C4.08066 35.7029 4.17169 36.1344 4.43678 36.472C4.69918 36.8097 5.09279 37 5.51585 37H5.52656L7.90694 36.9866C8.52547 36.9839 9.06902 36.5605 9.22432 35.9628L10.2686 31.9911C10.3007 31.8705 10.3168 31.7445 10.3141 31.6239H38.6859C38.6859 31.7472 38.6993 31.8705 38.7314 31.9911L39.7757 35.9628C39.9337 36.5605 40.4745 36.9839 41.1091 36.9866L43.4761 37H43.4841C43.9099 37 44.3035 36.8097 44.5659 36.472C44.8283 36.1344 44.9193 35.7029 44.8122 35.2875L43.8644 31.5703C46.7589 31.1871 49 28.7001 49 25.6985V5.92547C49 2.65855 46.3438 0 43.0798 0ZM7.71683 35.3786L5.81842 35.392L6.7288 31.8249L8.6406 31.8678L7.71683 35.3786ZM41.2832 35.3786L40.3594 31.8678L42.2712 31.8249L43.1816 35.392L41.2832 35.3786ZM47.3934 25.6985C47.3934 28.0783 45.4575 30.0159 43.0798 30.0159H5.92016C3.54246 30.0159 1.60656 28.0783 1.60656 25.6985V5.92547C1.60656 3.54563 3.54246 1.608 5.92016 1.608H43.0798C45.4575 1.608 47.3934 3.54563 47.3934 5.92547V25.6985Z" fill="black"/>
<path d="M7.11403 10.4519C5.71097 10.4519 4.57031 9.31017 4.57031 7.90586C4.57031 6.50154 5.71097 5.35986 7.11403 5.35986C8.51709 5.35986 9.65774 6.50154 9.65774 7.90586C9.65774 9.31017 8.51709 10.4519 7.11403 10.4519ZM7.11403 6.96786C6.59725 6.96786 6.17687 7.38862 6.17687 7.90586C6.17687 8.4231 6.59725 8.84386 7.11403 8.84386C7.6308 8.84386 8.05119 8.4231 8.05119 7.90586C8.05119 7.38862 7.6308 6.96786 7.11403 6.96786Z" fill="black"/>
<path d="M14.0769 10.4519C12.6739 10.4519 11.5332 9.31017 11.5332 7.90586C11.5332 6.50154 12.6739 5.35986 14.0769 5.35986C15.48 5.35986 16.6206 6.50154 16.6206 7.90586C16.6206 9.31017 15.48 10.4519 14.0769 10.4519ZM14.0769 6.96786C13.5601 6.96786 13.1398 7.38862 13.1398 7.90586C13.1398 8.4231 13.5601 8.84386 14.0769 8.84386C14.5937 8.84386 15.0141 8.4231 15.0141 7.90586C15.0141 7.38862 14.5937 6.96786 14.0769 6.96786Z" fill="black"/>
<path d="M7.11403 16.6159C5.71097 16.6159 4.57031 15.4742 4.57031 14.0699C4.57031 12.6656 5.71097 11.5239 7.11403 11.5239C8.51709 11.5239 9.65774 12.6656 9.65774 14.0699C9.65774 15.4742 8.51709 16.6159 7.11403 16.6159ZM7.11403 13.1319C6.59725 13.1319 6.17687 13.5527 6.17687 14.0699C6.17687 14.5872 6.59725 15.0079 7.11403 15.0079C7.6308 15.0079 8.05119 14.5872 8.05119 14.0699C8.05119 13.5527 7.6308 13.1319 7.11403 13.1319Z" fill="black"/>
<path d="M14.0769 16.6159C12.6739 16.6159 11.5332 15.4742 11.5332 14.0699C11.5332 12.6656 12.6739 11.5239 14.0769 11.5239C15.48 11.5239 16.6206 12.6656 16.6206 14.0699C16.6206 15.4742 15.48 16.6159 14.0769 16.6159ZM14.0769 13.1319C13.5601 13.1319 13.1398 13.5527 13.1398 14.0699C13.1398 14.5872 13.5601 15.0079 14.0769 15.0079C14.5937 15.0079 15.0141 14.5872 15.0141 14.0699C15.0141 13.5527 14.5937 13.1319 14.0769 13.1319Z" fill="black"/>
<path d="M40.8936 16.6158H26.6167C24.7959 16.6158 23.3125 15.1311 23.3125 13.3087V8.39891C23.3125 6.57651 24.7959 5.0918 26.6167 5.0918H40.8936C42.7144 5.0918 44.1977 6.57651 44.1977 8.39891V13.3087C44.1977 15.1311 42.7144 16.6158 40.8936 16.6158ZM26.6167 6.69979C25.6795 6.69979 24.9191 7.46091 24.9191 8.39891V13.3087C24.9191 14.2467 25.6795 15.0078 26.6167 15.0078H40.8936C41.8307 15.0078 42.5912 14.2467 42.5912 13.3087V8.39891C42.5912 7.46091 41.8307 6.69979 40.8936 6.69979H26.6167Z" fill="black"/>
<path d="M29.2041 19.2959H25.7232C25.2796 19.2959 24.9199 19.6559 24.9199 20.0999C24.9199 20.5439 25.2796 20.9039 25.7232 20.9039H29.2041C29.6477 20.9039 30.0074 20.5439 30.0074 20.0999C30.0074 19.6559 29.6477 19.2959 29.2041 19.2959Z" fill="black"/>
<path d="M35.3623 19.2959H31.8814C31.4378 19.2959 31.0781 19.6559 31.0781 20.0999C31.0781 20.5439 31.4378 20.9039 31.8814 20.9039H35.3623C35.8059 20.9039 36.1656 20.5439 36.1656 20.0999C36.1656 19.6559 35.8059 19.2959 35.3623 19.2959Z" fill="black"/>
<path d="M41.5224 19.2959H38.0416C37.5979 19.2959 37.2383 19.6559 37.2383 20.0999C37.2383 20.5439 37.5979 20.9039 38.0416 20.9039H41.5224C41.9661 20.9039 42.3257 20.5439 42.3257 20.0999C42.3257 19.6559 41.9661 19.2959 41.5224 19.2959Z" fill="black"/>
<path d="M9.38962 24.9238H5.90875C5.46511 24.9238 5.10547 25.2838 5.10547 25.7278C5.10547 26.1719 5.46511 26.5318 5.90875 26.5318H9.38962C9.83326 26.5318 10.1929 26.1719 10.1929 25.7278C10.1929 25.2838 9.83326 24.9238 9.38962 24.9238Z" fill="black"/>
<path d="M15.5478 24.9238H12.067C11.6233 24.9238 11.2637 25.2838 11.2637 25.7278C11.2637 26.1719 11.6233 26.5318 12.067 26.5318H15.5478C15.9915 26.5318 16.3511 26.1719 16.3511 25.7278C16.3511 25.2838 15.9915 24.9238 15.5478 24.9238Z" fill="black"/>
<path d="M9.38962 22.2441H5.90875C5.46511 22.2441 5.10547 22.6041 5.10547 23.0481C5.10547 23.4922 5.46511 23.8521 5.90875 23.8521H9.38962C9.83326 23.8521 10.1929 23.4922 10.1929 23.0481C10.1929 22.6041 9.83326 22.2441 9.38962 22.2441Z" fill="black"/>
<path d="M15.5478 22.2441H12.067C11.6233 22.2441 11.2637 22.6041 11.2637 23.0481C11.2637 23.4922 11.6233 23.8521 12.067 23.8521H15.5478C15.9915 23.8521 16.3511 23.4922 16.3511 23.0481C16.3511 22.6041 15.9915 22.2441 15.5478 22.2441Z" fill="black"/>
</g>
<defs>
<clipPath id="clip0_207_7540">
<rect width="49" height="37" fill="white"/>
</clipPath>
</defs>
</svg>
