<svg width="33" height="42" viewBox="0 0 33 42" fill="none" xmlns="http://www.w3.org/2000/svg">
<g clip-path="url(#clip0_207_7504)">
<mask id="mask0_207_7504" style="mask-type:luminance" maskUnits="userSpaceOnUse" x="0" y="7" width="33" height="35">
<path d="M32.9967 7.10156H0.707031V41.9998H32.9967V7.10156Z" fill="white"/>
</mask>
<g mask="url(#mask0_207_7504)">
<path d="M15.5413 38.2083C10.6308 38.2083 6.15886 37.8442 2.05136 37.1139C1.58605 37.0935 1.16603 36.8515 0.918964 36.4548C0.661602 36.0398 0.638954 35.5353 0.861315 35.0999L7.44567 22.2656H7.39008L7.49714 22.1639L7.68244 21.8018C7.92333 21.3339 8.40305 21.043 8.93631 21.043H10.4805H10.4784H23.851C24.3513 21.043 24.8186 21.3095 25.0678 21.7367L32.8113 35.0328C33.0645 35.4681 33.0625 35.9869 32.8092 36.4202C32.5622 36.8392 32.1277 37.0956 31.6398 37.1098C25.7946 37.8381 20.4497 38.2043 15.5433 38.2043L15.5413 38.2083ZM8.90954 22.2676C8.85601 22.2757 8.80866 22.3083 8.78395 22.3571L1.96283 35.6512C1.92576 35.7224 1.95253 35.7855 1.97106 35.814C1.99371 35.8506 2.03695 35.8933 2.11518 35.8933L2.22431 35.9035C10.3281 37.3499 19.9102 37.3499 31.5162 35.8994L31.5945 35.8953C31.6748 35.8953 31.718 35.8506 31.7407 35.814C31.7633 35.7753 31.7818 35.7163 31.7407 35.6451L23.9971 22.351C23.9683 22.3002 23.9107 22.2676 23.851 22.2676H8.90954Z" fill="black"/>
<path d="M30.2351 42H3.54772C2.0509 42 0.832031 40.7957 0.832031 39.3168V35.7954L1.54441 35.9053C10.5583 37.2865 21.7504 37.2865 32.2508 35.9053L32.9508 35.8137V39.3208C32.9508 40.7998 31.732 42.0041 30.2351 42.0041V42ZM2.06737 37.2153V39.3168C2.06737 40.1223 2.73239 40.7794 3.54772 40.7794H30.2351C31.0505 40.7794 31.7155 40.1223 31.7155 39.3168V37.2031C21.5816 38.4766 10.863 38.4807 2.06737 37.2174V37.2153Z" fill="black"/>
<path d="M5.15526 37.1177H3.91992V41.3897H5.15526V37.1177Z" fill="black"/>
<path d="M30.0674 37.1177H28.832V41.3897H30.0674V37.1177Z" fill="black"/>
<path d="M22.805 21.3978L21.6855 21.9141L28.8921 37.17L30.0115 36.6538L22.805 21.3978Z" fill="black"/>
<path d="M9.93559 21.434L3.96484 36.6909L5.11705 37.1311L11.0878 21.8742L9.93559 21.434Z" fill="black"/>
<path d="M27.5989 28.1688L27.5124 11.4489C26.8557 10.8875 26.1989 10.326 25.54 9.76657V22.8776H24.3047V7.09961L25.3259 7.97029C26.3945 8.88165 27.463 9.79301 28.5316 10.7064L28.7437 10.8875L28.8343 28.1606L27.5989 28.1667V28.1688Z" fill="black"/>
<path d="M5.36229 28.9824L4.12695 28.9763L4.21754 10.8894L4.42961 10.7084C5.49818 9.79497 6.56675 8.8836 7.63531 7.97224L8.65653 7.10156V22.4706H7.42119V9.76648C6.7644 10.3279 6.10761 10.8874 5.44877 11.4488L5.36229 28.9824Z" fill="black"/>
</g>
<path d="M32.8547 11.984C32.8218 11.5141 32.6035 11.0849 32.2432 10.7756L25.8051 5.26882C25.5827 5.07759 25.3212 4.9474 25.0433 4.88637V2.39233C25.0433 0.233944 18.9963 0 16.3959 0C13.7955 0 7.74854 0.233944 7.74854 2.39233V4.90061C7.4953 4.96978 7.25647 5.09387 7.05264 5.26882L0.614465 10.7756C0.254158 11.0849 0.0359153 11.5141 0.00297293 11.984C-0.0320283 12.4539 0.12033 12.9076 0.433282 13.2636C0.744176 13.6216 1.1786 13.8352 1.65421 13.8698C1.69745 13.8718 1.74274 13.8739 1.78598 13.8739C2.21423 13.8739 2.62395 13.7233 2.95131 13.4426L9.38948 7.93577C9.50272 7.83813 9.60361 7.72624 9.68802 7.60622H23.1697C23.2541 7.72624 23.355 7.83813 23.4682 7.93577L29.9064 13.4426C30.2338 13.7233 30.6435 13.8739 31.0717 13.8739C31.115 13.8739 31.1582 13.8718 31.2035 13.8698C31.6791 13.8352 32.1115 13.6216 32.4244 13.2636C32.7353 12.9076 32.8897 12.4539 32.8547 11.984ZM8.58034 7.01221L2.14217 12.5211C2.03099 12.6146 1.88892 12.6614 1.74274 12.6513C1.59656 12.6411 1.46273 12.576 1.36596 12.4661C1.27125 12.3563 1.2239 12.2159 1.23419 12.0715C1.24449 11.9271 1.31243 11.7948 1.42361 11.6992L7.86178 6.19035C7.96473 6.10288 8.09238 6.05812 8.22003 6.05812C8.37445 6.05812 8.52887 6.12322 8.63593 6.24528C8.83564 6.47312 8.80888 6.81691 8.58034 7.01221ZM23.287 5.44783C23.0503 5.71636 22.9061 6.03981 22.867 6.38564H9.99068C9.9495 6.03981 9.80538 5.71636 9.57067 5.44783C9.40596 5.25865 9.20624 5.11014 8.98388 5.00843V2.4086C9.19801 2.00174 11.6296 1.22058 16.3959 1.22058C21.1623 1.22058 23.5938 2.00174 23.8079 2.4086V5.04098C23.6103 5.14066 23.4332 5.27899 23.287 5.44783ZM31.4897 12.4661C31.292 12.6919 30.9441 12.7164 30.7155 12.5211L24.2774 7.01221C24.1662 6.91659 24.0982 6.78436 24.088 6.63993C24.0777 6.49549 24.125 6.35513 24.2197 6.24528C24.3165 6.13543 24.4503 6.07033 24.5965 6.06016C24.6109 6.06016 24.6233 6.06016 24.6377 6.06016C24.7694 6.06016 24.895 6.10695 24.9959 6.19239L31.4341 11.7012C31.6626 11.8965 31.6894 12.2403 31.4897 12.4682V12.4661Z" fill="black"/>
<path d="M19.2543 5.212H13.7488C13.2793 5.212 12.8984 4.83565 12.8984 4.37183V2.95393C12.8984 2.49011 13.2793 2.11377 13.7488 2.11377H19.2543C19.7237 2.11377 20.1046 2.49011 20.1046 2.95393V4.37183C20.1046 4.83565 19.7237 5.212 19.2543 5.212ZM14.1317 3.99142H18.8672V3.33434H14.1317V3.99142Z" fill="black"/>
<path d="M10.5292 4.55486C10.9272 4.55486 11.2498 4.23609 11.2498 3.84286C11.2498 3.44963 10.9272 3.13086 10.5292 3.13086C10.1312 3.13086 9.80859 3.44963 9.80859 3.84286C9.80859 4.23609 10.1312 4.55486 10.5292 4.55486Z" fill="black"/>
<path d="M22.2636 4.55486C22.6616 4.55486 22.9842 4.23609 22.9842 3.84286C22.9842 3.44963 22.6616 3.13086 22.2636 3.13086C21.8656 3.13086 21.543 3.44963 21.543 3.84286C21.543 4.23609 21.8656 4.55486 22.2636 4.55486Z" fill="black"/>
</g>
<defs>
<clipPath id="clip0_207_7504">
<rect width="33" height="42" fill="white"/>
</clipPath>
</defs>
</svg>
