<svg width="24" height="24" viewBox="0 0 24 24" fill="none" xmlns="http://www.w3.org/2000/svg">
<path fill-rule="evenodd" clip-rule="evenodd" d="M18.6596 9.42969C18.6596 12.438 16.2481 14.8594 13.2946 14.8594C10.3412 14.8594 7.92969 12.438 7.92969 9.42969C7.92969 6.42139 10.3412 4 13.2946 4C16.2481 4 18.6596 6.42139 18.6596 9.42969ZM17.517 14.241C16.3935 15.2479 14.9147 15.8594 13.2946 15.8594C9.77937 15.8594 6.92969 12.9807 6.92969 9.42969C6.92969 5.87867 9.77937 3 13.2946 3C16.8099 3 19.6596 5.87867 19.6596 9.42969C19.6596 10.9824 19.1147 12.4065 18.2077 13.5176L23.8533 19.1039C24.0496 19.2982 24.0529 19.6163 23.8606 19.8146C23.6684 20.0128 23.3534 20.0161 23.1571 19.8218L17.517 14.241Z" fill="black"/>
<rect y="19" width="14.8489" height="1" rx="0.5" fill="black"/>
<path fill-rule="evenodd" clip-rule="evenodd" d="M5.9539 9H0.5C0.223858 9 0 9.22386 0 9.5C0 9.77614 0.223858 10 0.5 10H5.9539C5.9444 9.83456 5.93958 9.66785 5.93958 9.5C5.93958 9.33215 5.9444 9.16544 5.9539 9Z" fill="black"/>
<path fill-rule="evenodd" clip-rule="evenodd" d="M7.21417 14H0.5C0.223858 14 0 14.2239 0 14.5C0 14.7761 0.223858 15 0.5 15H7.93828C7.67384 14.6855 7.43165 14.3514 7.21417 14Z" fill="black"/>
</svg>
