<svg width="13" height="14" viewBox="0 0 13 14" fill="none" xmlns="http://www.w3.org/2000/svg">
    <path d="M6.5 14L6.19357 13.8476C2.37714 11.9429 0 8.04762 0 3.68571C0 3.18095 0.0371429 2.67619 0.0928571 2.19048L0.185714 1.48571L0.872857 1.58095C2.795 1.8381 4.58714 1.37143 6.09143 0.285714L6.49071 0L6.89 0.285714C8.39429 1.37143 10.1864 1.8381 12.1086 1.58095L12.7957 1.48571L12.8886 2.19048C12.9536 2.67619 12.9814 3.18095 12.9814 3.68571C12.9814 8.04762 10.6043 11.9429 6.78786 13.8476L6.48143 14H6.5ZM1.41143 3.06667C1.40214 3.27619 1.39286 3.47619 1.39286 3.68571C1.39286 7.38095 3.34286 10.6857 6.5 12.4C9.65714 10.6857 11.6071 7.37143 11.6071 3.68571C11.6071 3.47619 11.6071 3.26667 11.5886 3.06667C9.75 3.17143 8.01357 2.69524 6.5 1.72381C4.98643 2.69524 3.25 3.1619 1.41143 3.06667Z" fill="#979797"/>
</svg>
