<svg width="40" height="43" viewBox="0 0 40 43" fill="none" xmlns="http://www.w3.org/2000/svg">
<g clip-path="url(#clip0_207_7531)">
<path d="M5.24256 3.25781C5.15091 3.51896 5.06374 3.78231 4.97656 4.04567L5.24703 3.25781H5.24256Z" fill="black"/>
<path d="M30.8196 5.32465C30.4284 4.13845 30.0015 2.95224 29.541 1.77046C29.1297 0.710396 28.0836 0 26.9392 0H8.37531C7.21298 0 6.1624 0.725888 5.76006 1.80365L0.931892 2.75749C0.52284 2.83716 0.196491 3.12043 0.0623757 3.51215C-0.07174 3.90386 0.0131999 4.32434 0.290372 4.63417L3.69691 8.47607C1.56671 16.9898 1.08836 26.2935 2.23058 36.7104C2.37364 38.0073 3.40186 39.0076 4.68266 39.1515V40.7847C4.68266 42.0063 5.68629 43 6.91792 43H28.8235C30.0551 43 31.0587 42.0063 31.0587 40.7847V39.1603C32.3328 39.0408 33.3812 38.0626 33.5578 36.7923C33.7656 35.2808 33.9288 33.7826 34.0451 32.2932C37.3689 32.0608 39.9998 29.3099 39.9998 25.9593V14.8896C39.9998 9.77293 35.9249 5.57916 30.8196 5.32465ZM1.50859 3.99681L5.24148 3.25764H5.24595L4.97548 4.0455L4.02326 6.83176L1.50859 3.99681ZM29.7176 40.7847C29.7176 41.2738 29.3152 41.6722 28.8235 41.6722H6.91792C6.42616 41.6722 6.02382 41.2738 6.02382 40.7847V39.3263H29.7176V40.7847ZM32.2278 36.6131C32.1317 37.3146 31.517 37.8435 30.7972 37.8435H5.0023C4.26243 37.8435 3.64326 37.2947 3.56279 36.5688C2.24623 24.5629 3.11127 14.0707 6.20711 4.5877C6.38593 4.03886 6.57369 3.49223 6.76816 2.94781L6.78381 2.90798C6.85981 2.69331 6.93804 2.47864 7.01851 2.26397C7.22639 1.70407 7.77179 1.32784 8.37531 1.32784H26.9392C27.5315 1.32784 28.0747 1.69743 28.2893 2.24627C32.5988 13.3205 33.8886 24.5607 32.2278 36.6131ZM32.2255 10.1447C34.5413 11.3331 35.9763 13.3581 35.9763 15.5557V24.4323C35.9763 25.5566 35.3415 26.6122 34.2663 27.3447C34.3245 21.4779 33.6472 15.7704 32.2255 10.1447ZM38.6586 25.9593C38.6586 28.5464 36.676 30.6798 34.1367 30.952C34.1792 30.266 34.2105 29.5821 34.2328 28.9005C36.1462 27.9577 37.3175 26.278 37.3175 24.4323V15.5557C37.3175 12.5216 35.1582 9.77957 31.7852 8.49377C31.6176 7.89182 31.441 7.28986 31.2554 6.69012C35.4153 7.14822 38.6586 10.6515 38.6586 14.8896V25.9593Z" fill="black"/>
<path d="M28.0903 36.2942H7.42529C6.17577 36.2942 5.1565 35.3006 5.12967 34.0701C4.92179 32.5807 4.77203 31.0625 4.68933 29.5599C4.5798 27.5991 4.57756 25.6073 4.68262 23.6443L4.72062 22.9561L31.0185 25.2798L31.0565 25.8463C31.1414 27.0967 31.1414 28.3648 31.0565 29.6174C30.9536 31.1223 30.7301 32.6294 30.3859 34.1011C30.3412 35.3161 29.3286 36.292 28.0903 36.292V36.2942ZM5.99025 24.4034C5.92095 26.0964 5.93437 27.8027 6.02825 29.489C6.11095 30.9674 6.25624 32.4634 6.46412 33.9307L6.47083 34.0236C6.47083 34.5459 6.9 34.9686 7.42529 34.9686H28.0903C28.6178 34.9686 29.0447 34.5437 29.0447 34.0236V33.9462L29.0626 33.8709C29.3979 32.4479 29.6192 30.9895 29.7175 29.5333C29.7846 28.5286 29.7958 27.5128 29.7488 26.5058L5.98801 24.4056L5.99025 24.4034Z" fill="black"/>
<path d="M6.20703 4.58764L6.76808 2.94775C6.57361 3.49217 6.38585 4.0388 6.20703 4.58764Z" fill="black"/>
</g>
<defs>
<clipPath id="clip0_207_7531">
<rect width="40" height="43" fill="white"/>
</clipPath>
</defs>
</svg>
