<svg width="34" height="34" viewBox="0 0 34 34" fill="none" xmlns="http://www.w3.org/2000/svg">
<path d="M17.0374 34H16.9626C7.60951 34 0 26.3905 0 17.0374V16.9626C0 7.60951 7.60951 0 16.9626 0H17.0374C26.3905 0 34 7.60951 34 16.9626V17.0374C34 26.3905 26.3905 34 17.0374 34ZM16.9626 1.15087C8.24363 1.15087 1.15087 8.24363 1.15087 16.9626V17.0374C1.15087 25.7564 8.24363 32.8491 16.9626 32.8491H17.0374C25.7564 32.8491 32.8491 25.7564 32.8491 17.0374V16.9626C32.8491 8.24363 25.7564 1.15087 17.0374 1.15087H16.9626Z" fill="#383D38"/>
<path d="M6.79618 16.439C6.84221 16.416 6.88827 16.3941 6.93315 16.3734C7.71344 16.012 8.50408 15.6737 9.29358 15.3353C9.33616 15.3353 9.40749 15.2858 9.44777 15.2697C9.50877 15.2432 9.56978 15.2179 9.63077 15.1914C9.74816 15.1408 9.86555 15.0913 9.98179 15.0407C10.2166 14.9406 10.4502 14.8404 10.685 14.7403C11.1534 14.5401 11.6218 14.3398 12.0902 14.1384C13.027 13.7379 13.9649 13.3362 14.9017 12.9357C15.8385 12.5352 16.7765 12.1336 17.7133 11.7331C18.6501 11.3326 19.588 10.9309 20.5249 10.5304C21.4617 10.1299 22.3996 9.72829 23.3364 9.32779C23.5447 9.23803 23.7703 9.10452 23.9936 9.06539C24.1812 9.03202 24.3641 8.96758 24.5529 8.9319C24.9108 8.864 25.3055 8.83638 25.6485 8.98484C25.767 9.03663 25.8764 9.10912 25.9673 9.20004C26.4023 9.63046 26.3413 10.3371 26.2493 10.9425C25.6082 15.1615 24.9672 19.3818 24.325 23.6008C24.2375 24.1797 24.1179 24.815 23.661 25.181C23.2743 25.4905 22.7241 25.5251 22.2465 25.3939C21.7689 25.2615 21.3477 24.9842 20.9346 24.7114C19.2209 23.5766 17.5061 22.4419 15.7925 21.3071C15.3851 21.0378 14.9317 20.6857 14.9363 20.1966C14.9386 19.9019 15.1146 19.6395 15.2942 19.4059C16.7834 17.4632 18.9321 16.1283 20.5306 14.2754C20.7562 14.0141 20.9334 13.5423 20.6238 13.3915C20.4397 13.3017 20.2279 13.4237 20.0599 13.5399C17.9469 15.0073 15.8351 16.4758 13.7221 17.9432C13.0327 18.4219 12.31 18.9145 11.4791 19.0319C10.7356 19.1377 9.98755 18.9306 9.26826 18.7188C8.66521 18.5416 8.06328 18.3598 7.46368 18.1722C7.14489 18.0732 6.81574 17.9662 6.56946 17.7418C6.32317 17.5173 6.18164 17.1399 6.3301 16.8406C6.42332 16.6531 6.60401 16.5345 6.7939 16.4378L6.79618 16.439Z" fill="#383D38"/>
</svg>
