<svg width="34" height="34" viewBox="0 0 34 34" fill="none" xmlns="http://www.w3.org/2000/svg">
    <path d="M17.0374 33.9976H16.9626C7.60951 33.9976 0 26.3886 0 17.0362V16.9614C0 7.60897 7.60951 0 16.9626 0H17.0374C26.3905 0 34 7.60897 34 16.9614V17.0362C34 26.3886 26.3905 33.9976 17.0374 33.9976ZM16.9626 1.15078C8.24363 1.15078 1.15087 8.24305 1.15087 16.9614V17.0362C1.15087 25.7545 8.24363 32.8468 16.9626 32.8468H17.0374C25.7564 32.8468 32.8491 25.7545 32.8491 17.0362V16.9614C32.8491 8.24305 25.7564 1.15078 17.0374 1.15078H16.9626Z" fill="white"/>
    <path d="M6.79618 16.4385C6.84221 16.4154 6.88827 16.3936 6.93315 16.3729C7.71344 16.0115 8.50408 15.6732 9.29358 15.3348C9.33616 15.3348 9.40749 15.2854 9.44777 15.2692C9.50877 15.2428 9.56978 15.2175 9.63077 15.191C9.74816 15.1404 9.86555 15.0909 9.98179 15.0402C10.2166 14.9401 10.4502 14.84 10.685 14.7399C11.1534 14.5397 11.6218 14.3394 12.0902 14.138C13.027 13.7376 13.9649 13.3359 14.9017 12.9355C15.8385 12.535 16.7765 12.1334 17.7133 11.7329C18.6501 11.3324 19.588 10.9308 20.5249 10.5303C21.4617 10.1299 22.3996 9.72823 23.3364 9.32776C23.5447 9.238 23.7703 9.10451 23.9936 9.06538C24.1812 9.03201 24.3641 8.96757 24.5529 8.9319C24.9108 8.864 25.3055 8.83638 25.6485 8.98483C25.767 9.03662 25.8764 9.1091 25.9673 9.20001C26.4023 9.63041 26.3413 10.337 26.2493 10.9423C25.6082 15.1611 24.9672 19.381 24.325 23.5998C24.2375 24.1786 24.1179 24.8139 23.661 25.1798C23.2743 25.4894 22.7241 25.5239 22.2465 25.3927C21.7689 25.2603 21.3477 24.983 20.9346 24.7103C19.2209 23.5756 17.5061 22.4409 15.7925 21.3062C15.3851 21.037 14.9317 20.6848 14.9363 20.1958C14.9386 19.9012 15.1146 19.6388 15.2942 19.4052C16.7834 17.4626 18.9321 16.1277 20.5306 14.275C20.7562 14.0138 20.9334 13.5419 20.6238 13.3912C20.4397 13.3014 20.2279 13.4234 20.0599 13.5396C17.9469 15.0069 15.8351 16.4753 13.7221 17.9425C13.0327 18.4212 12.31 18.9138 11.4791 19.0311C10.7356 19.137 9.98755 18.9299 9.26826 18.7181C8.66521 18.5409 8.06328 18.3591 7.46368 18.1715C7.14489 18.0725 6.81574 17.9655 6.56946 17.7411C6.32317 17.5167 6.18164 17.1393 6.3301 16.8401C6.42332 16.6525 6.60401 16.534 6.7939 16.4373L6.79618 16.4385Z" fill="white"/>
</svg>
