<svg width="29" height="49" viewBox="0 0 29 49" fill="none" xmlns="http://www.w3.org/2000/svg">
<g clip-path="url(#clip0_207_7536)">
<path d="M15.2726 30.711C15.2748 30.6999 15.2748 30.6911 15.2748 30.6801V20.5269C15.2748 20.3437 15.1996 20.1782 15.08 20.059C14.9605 19.9398 14.7944 19.8647 14.6107 19.8647C14.2432 19.8647 13.9466 20.1605 13.9466 20.5269V30.6801C13.9466 30.6801 13.9466 30.6999 13.9488 30.711C10.1057 31.0442 7.08398 34.269 7.08398 38.1846C7.08398 42.3231 10.4599 45.6891 14.6107 45.6891C18.7615 45.6891 22.1374 42.3231 22.1374 38.1846C22.1374 34.269 19.1157 31.0442 15.2726 30.711ZM14.6107 44.3647C11.1927 44.3647 8.41223 41.5925 8.41223 38.1846C8.41223 34.7766 11.1927 32.0044 14.6107 32.0044C18.0287 32.0044 20.8092 34.7766 20.8092 38.1846C20.8092 41.5925 18.0287 44.3647 14.6107 44.3647Z" fill="black"/>
<path d="M14.6121 39.7297C15.4679 39.7297 16.1617 39.038 16.1617 38.1847C16.1617 37.3314 15.4679 36.6396 14.6121 36.6396C13.7563 36.6396 13.0625 37.3314 13.0625 38.1847C13.0625 39.038 13.7563 39.7297 14.6121 39.7297Z" fill="black"/>
<path d="M28.3359 47.6757H26.7176C26.7132 47.6602 26.7066 47.6448 26.6999 47.6315L24.4884 43.1884C25.3894 41.575 25.9008 39.7165 25.9008 37.7432C25.9008 33.9159 24.0036 30.4263 20.8092 28.3339V6.06982C20.8092 4.44752 20.176 2.92234 19.0249 1.77901C17.8782 0.631261 16.3485 0 14.7214 0C11.3653 0 8.63359 2.72369 8.63359 6.06982V28.1905C5.34618 30.2409 3.32061 33.8674 3.32061 37.7432C3.32061 39.6856 3.81649 41.5154 4.69092 43.1112C4.67985 43.1244 4.67321 43.1377 4.66656 43.1509L2.4329 47.6315C2.42626 47.6448 2.41962 47.6602 2.41519 47.6757H0.664122C0.480382 47.6757 0.314351 47.7507 0.194809 47.8699C0.0752672 47.9891 0 48.1546 0 48.3378C0 48.7042 0.296641 49 0.664122 49H28.3359C28.5196 49 28.6856 48.925 28.8052 48.8058C28.9247 48.6866 29 48.521 29 48.3378C29 47.9714 28.7034 47.6757 28.3359 47.6757ZM3.94046 47.6757L5.54763 44.4465C6.5416 45.7819 7.82557 46.8877 9.30435 47.6757H3.94046ZM4.64886 37.7432C4.64886 34.2095 6.5571 30.9119 9.62977 29.1396L9.96183 28.9475V6.06982C9.96183 3.45207 12.0981 1.32432 14.7214 1.32432C15.9943 1.32432 17.1875 1.81874 18.0863 2.71486C18.985 3.61099 19.4809 4.80068 19.4809 6.06982V7.72523H13.2581V7.89077C13.2581 8.53086 13.7783 9.04955 14.4203 9.04955H19.4809V11.6982H15.4718V12.1176C15.4718 12.6164 15.8792 13.0225 16.3817 13.0225H19.4809V15.6712H13.2581V15.8367C13.2581 16.4768 13.7783 16.9955 14.4203 16.9955H19.4809V29.0689L19.7997 29.2632C22.7882 31.0841 24.5725 34.2559 24.5725 37.7432C24.5725 43.2193 20.103 47.6757 14.6107 47.6757C9.1184 47.6757 4.64886 43.2193 4.64886 37.7432ZM19.917 47.6757C21.3692 46.9032 22.6333 45.8194 23.6206 44.5172L25.1946 47.6757H19.917Z" fill="black"/>
</g>
<defs>
<clipPath id="clip0_207_7536">
<rect width="29" height="49" fill="white"/>
</clipPath>
</defs>
</svg>
