<svg width="28" height="41" viewBox="0 0 28 41" fill="none" xmlns="http://www.w3.org/2000/svg">
<g clip-path="url(#clip0_207_7466)">
<path d="M20.5758 0H7.42424C3.3303 0 0 3.33523 0 7.43523V38.2383C0 39.7615 1.23667 41 2.75758 41H25.2424C26.7633 41 28 39.7615 28 38.2383V7.43523C28 3.33523 24.6697 0 20.5758 0ZM7.42424 1.27461H20.5758C23.6982 1.27461 26.2839 3.61565 26.6742 6.6386C17.9985 7.68378 9.47333 7.68378 1.32576 6.64285C1.71394 3.61777 4.2997 1.27461 7.42424 1.27461ZM26.7273 38.2383C26.7273 39.0583 26.0612 39.7254 25.2424 39.7254H2.75758C1.93879 39.7254 1.27273 39.0583 1.27273 38.2383V36.8108C5.3603 37.3291 9.54333 37.5883 13.7879 37.5883C18.0324 37.5883 22.3661 37.3291 26.7273 36.8065V38.2383ZM26.7273 35.5234C18.0133 36.5771 9.45212 36.5771 1.27273 35.5255V10.6812C5.3603 11.1996 9.54333 11.4588 13.7879 11.4588C18.0324 11.4588 22.3661 11.1996 26.7273 10.677V35.5234ZM26.7273 9.39389C18.0133 10.4476 9.45212 10.4476 1.27273 9.39601V7.91959C5.3603 8.43793 9.54333 8.6971 13.7879 8.6971C18.0324 8.6971 22.3661 8.43793 26.7273 7.91534V9.39389Z" fill="black"/>
<path d="M13.9997 28.4665C13.0642 28.4665 12.3027 27.7039 12.3027 26.767V19.3318C12.3027 18.395 13.0642 17.6323 13.9997 17.6323C14.9352 17.6323 15.6967 18.395 15.6967 19.3318V26.767C15.6967 27.7039 14.9352 28.4665 13.9997 28.4665ZM13.9997 18.9069C13.7664 18.9069 13.5755 19.0981 13.5755 19.3318V26.767C13.5755 27.0007 13.7664 27.1919 13.9997 27.1919C14.233 27.1919 14.4239 27.0007 14.4239 26.767V19.3318C14.4239 19.0981 14.233 18.9069 13.9997 18.9069Z" fill="black"/>
<path d="M16.5744 34.8394H11.6404C11.002 34.8394 10.4844 34.3189 10.4844 33.6816V32.5982C10.4844 31.9588 11.0041 31.4404 11.6404 31.4404H16.5744C17.2129 31.4404 17.7304 31.9609 17.7304 32.5982V33.6816C17.7304 34.3211 17.2107 34.8394 16.5744 34.8394ZM11.7571 33.5648H16.4577V32.715H11.7571V33.5648Z" fill="black"/>
<path d="M17.7304 15.7203H10.4844V13.6618C10.4844 12.9225 11.0847 12.3213 11.8229 12.3213H16.3941C17.1323 12.3213 17.7326 12.9225 17.7326 13.6618V15.7203H17.7304ZM11.7571 14.4456H16.4577V13.6618C16.4577 13.6256 16.428 13.5959 16.392 13.5959H11.8207C11.7847 13.5959 11.755 13.6256 11.755 13.6618V14.4456H11.7571Z" fill="black"/>
</g>
<defs>
<clipPath id="clip0_207_7466">
<rect width="28" height="41" fill="white"/>
</clipPath>
</defs>
</svg>
