<svg width="24" height="24" viewBox="0 0 24 24" fill="none" xmlns="http://www.w3.org/2000/svg">
<path fill-rule="evenodd" clip-rule="evenodd" d="M13.0607 2.43934C13.2204 2.59904 13.3403 2.79105 13.4142 3H10.5858C10.6597 2.79105 10.7796 2.59904 10.9393 2.43934C11.2206 2.15804 11.6022 2 12 2C12.3978 2 12.7794 2.15804 13.0607 2.43934ZM9.5505 3C9.64782 2.52328 9.88304 2.08142 10.2322 1.73223C10.7011 1.26339 11.337 1 12 1C12.663 1 13.2989 1.26339 13.7678 1.73223C14.117 2.08142 14.3522 2.52328 14.4495 3H19.5H21.5C21.7761 3 22 3.22386 22 3.5C22 3.77614 21.7761 4 21.5 4H20.5C20.5 4.03644 20.498 4.07303 20.494 4.10963L18.619 21.1096C18.5631 21.6164 18.1349 22 17.625 22H6.375C5.86514 22 5.43692 21.6164 5.38103 21.1096L3.50603 4.10963C3.50199 4.07303 3.5 4.03644 3.5 4H2.5C2.22386 4 2 3.77614 2 3.5C2 3.22386 2.22386 3 2.5 3H4.5H9.5505ZM4.5 4L4.61029 5L6.375 21H17.625L19.3897 5L19.5 4H18.4939H5.50606H4.5ZM9.5 5.5C9.77614 5.5 10 5.72386 10 6V16C10 16.2761 9.77614 16.5 9.5 16.5C9.22386 16.5 9 16.2761 9 16L9 6C9 5.72386 9.22386 5.5 9.5 5.5ZM15 6C15 5.72386 14.7761 5.5 14.5 5.5C14.2239 5.5 14 5.72386 14 6V16C14 16.2761 14.2239 16.5 14.5 16.5C14.7761 16.5 15 16.2761 15 16V6Z" fill="black"/>
</svg>
