<svg width="27" height="38" viewBox="0 0 27 38" fill="none" xmlns="http://www.w3.org/2000/svg">
<g clip-path="url(#clip0_207_7486)">
<path d="M22.8562 0H4.14574C1.85936 0 0 1.81764 0 4.05271V32.2626C0 34.4246 1.74064 36.1973 3.92553 36.3097V37.2063C3.92553 37.6443 4.29128 38 4.73936 38H8.8583C9.30638 38 9.67021 37.6443 9.67021 37.2063V36.3153H17.3298V37.2063C17.3298 37.6443 17.6955 38 18.1436 38H22.2626C22.7106 38 23.0745 37.6443 23.0745 37.2063V36.3097C25.2574 36.1973 27 34.4265 27 32.2626V4.05271C27 1.81764 25.1406 0 22.8562 0ZM1.14894 4.05271C1.14894 2.43724 2.49319 1.12315 4.14574 1.12315H22.8562C24.5087 1.12315 25.8511 2.43724 25.8511 4.05271V8.04926H1.14894V4.05271ZM8.52128 36.8768H5.07447V36.3153H8.52128V36.8768ZM21.9255 36.8768H18.4787V36.3153H21.9255V36.8768ZM25.8511 32.2626C25.8511 33.878 24.5087 35.1921 22.8562 35.1921H4.14574C2.49319 35.1921 1.14894 33.878 1.14894 32.2626V9.17241H25.8511V32.2626Z" fill="black"/>
<path d="M13.5244 6.92633C12.362 6.92633 11.418 6.00347 11.418 4.86722C11.418 3.73096 12.362 2.80811 13.5244 2.80811C14.6867 2.80811 15.6307 3.73096 15.6307 4.86722C15.6307 6.00347 14.6867 6.92633 13.5244 6.92633ZM13.5244 3.93126C12.9958 3.93126 12.5669 4.35057 12.5669 4.86722C12.5669 5.38387 12.9958 5.80318 13.5244 5.80318C14.0529 5.80318 14.4818 5.38387 14.4818 4.86722C14.4818 4.35057 14.0529 3.93126 13.5244 3.93126Z" fill="black"/>
<path d="M21.2802 6.92633C20.1179 6.92633 19.1738 6.00347 19.1738 4.86722C19.1738 3.73096 20.1179 2.80811 21.2802 2.80811C22.4426 2.80811 23.3866 3.73096 23.3866 4.86722C23.3866 6.00347 22.4426 6.92633 21.2802 6.92633ZM21.2802 3.93126C20.7517 3.93126 20.3228 4.35057 20.3228 4.86722C20.3228 5.38387 20.7517 5.80318 21.2802 5.80318C21.8087 5.80318 22.2377 5.38387 22.2377 4.86722C22.2377 4.35057 21.8087 3.93126 21.2802 3.93126Z" fill="black"/>
<path d="M5.77045 6.92633C4.60811 6.92633 3.66406 6.00347 3.66406 4.86722C3.66406 3.73096 4.60811 2.80811 5.77045 2.80811C6.93279 2.80811 7.87683 3.73096 7.87683 4.86722C7.87683 6.00347 6.93279 6.92633 5.77045 6.92633ZM5.77045 3.93126C5.24194 3.93126 4.813 4.35057 4.813 4.86722C4.813 5.38387 5.24194 5.80318 5.77045 5.80318C6.29896 5.80318 6.72789 5.38387 6.72789 4.86722C6.72789 4.35057 6.29896 3.93126 5.77045 3.93126Z" fill="black"/>
<path d="M13.5258 11.9805C8.03581 11.9805 3.56836 16.3477 3.56836 21.7145C3.56836 27.0813 8.03581 31.4484 13.5258 31.4484C19.0158 31.4484 23.4833 27.0813 23.4833 21.7145C23.4833 16.3477 19.0158 11.9805 13.5258 11.9805ZM13.5258 30.3253C8.66772 30.3253 4.7173 26.4617 4.7173 21.7145C4.7173 16.9673 8.66772 13.1036 13.5258 13.1036C18.3839 13.1036 22.3343 16.9673 22.3343 21.7145C22.3343 26.4617 18.382 30.3253 13.5258 30.3253Z" fill="black"/>
<path d="M17.8914 26.6807C17.4586 27.0457 16.9799 27.3564 16.4629 27.6035L16.4782 27.641C16.685 27.5492 16.8861 27.4444 17.0776 27.3265C17.3763 27.143 17.654 26.9334 17.9048 26.6956L17.8914 26.6807Z" fill="black"/>
<path d="M3.45325 13.5225C2.70069 13.5225 2.08984 12.9254 2.08984 12.1897C2.08984 11.4541 2.70069 10.8569 3.45325 10.8569C4.2058 10.8569 4.81665 11.4541 4.81665 12.1897C4.81665 12.9254 4.2058 13.5225 3.45325 13.5225ZM3.45325 11.9801C3.33452 11.9801 3.23878 12.0737 3.23878 12.1897C3.23878 12.3058 3.33452 12.3994 3.45325 12.3994C3.57197 12.3994 3.66772 12.3058 3.66772 12.1897C3.66772 12.0737 3.57197 11.9801 3.45325 11.9801Z" fill="black"/>
<path d="M3.45325 33.6944C2.70069 33.6944 2.08984 33.0973 2.08984 32.3616C2.08984 31.626 2.70069 31.0288 3.45325 31.0288C4.2058 31.0288 4.81665 31.626 4.81665 32.3616C4.81665 33.0973 4.2058 33.6944 3.45325 33.6944ZM3.45325 32.152C3.33452 32.152 3.23878 32.2456 3.23878 32.3616C3.23878 32.4777 3.33452 32.5713 3.45325 32.5713C3.57197 32.5713 3.66772 32.4777 3.66772 32.3616C3.66772 32.2456 3.57197 32.152 3.45325 32.152Z" fill="black"/>
<path d="M23.2384 13.65C22.4859 13.65 21.875 13.0528 21.875 12.3172C21.875 11.5815 22.4859 10.9844 23.2384 10.9844C23.991 10.9844 24.6018 11.5815 24.6018 12.3172C24.6018 13.0528 23.991 13.65 23.2384 13.65ZM23.2384 12.1094C23.1197 12.1094 23.0239 12.203 23.0239 12.3191C23.0239 12.4351 23.1197 12.5287 23.2384 12.5287C23.3571 12.5287 23.4529 12.4351 23.4529 12.3191C23.4529 12.203 23.3571 12.1094 23.2384 12.1094Z" fill="black"/>
<path d="M23.6212 33.6944C22.8687 33.6944 22.2578 33.0973 22.2578 32.3616C22.2578 31.626 22.8687 31.0288 23.6212 31.0288C24.3738 31.0288 24.9846 31.626 24.9846 32.3616C24.9846 33.0973 24.3738 33.6944 23.6212 33.6944ZM23.6212 32.152C23.5025 32.152 23.4067 32.2456 23.4067 32.3616C23.4067 32.4777 23.5025 32.5713 23.6212 32.5713C23.7399 32.5713 23.8357 32.4777 23.8357 32.3616C23.8357 32.2456 23.7399 32.152 23.6212 32.152Z" fill="black"/>
<path d="M12.0554 21.4651C12.0515 21.4857 12.0496 21.5063 12.0515 21.5269L12.0937 21.5082L12.0554 21.4651ZM13.5873 20.2222L13.6141 20.2896L13.6792 20.2315C13.6486 20.2259 13.6179 20.2222 13.5873 20.2222ZM13.392 22.8747L13.2617 23.0057C13.323 23.0169 13.3862 23.0226 13.4513 23.0226L13.392 22.8747ZM14.8607 21.7796L14.9009 21.8245C14.9066 21.8039 14.9086 21.7815 14.9105 21.7609L14.8607 21.7796Z" fill="black"/>
<path d="M15.7988 29.0599L15.8046 29.0749L16.3273 28.9027C16.8041 28.7473 17.2618 28.5376 17.685 28.2793C18.1388 28.0023 18.5524 27.6691 18.9163 27.2891C18.0431 28.0959 16.9784 28.7117 15.7988 29.0599Z" fill="black"/>
<path d="M13.5249 14.0396C9.19532 14.0396 5.67383 17.482 5.67383 21.7144C5.67383 25.9468 9.19532 29.3893 13.5249 29.3893C14.3157 29.3893 15.0798 29.2751 15.7998 29.0598C16.9794 28.7117 18.044 28.0958 18.9172 27.289C20.43 25.8888 21.376 23.9083 21.376 21.7144C21.376 17.482 17.8545 14.0396 13.5249 14.0396ZM19.0915 18.3C19.2121 18.4891 19.3194 18.6838 19.4132 18.886L15.0894 20.4939L18.4462 17.4914C18.6874 17.7366 18.9038 18.008 19.0915 18.3ZM13.5249 15.1627C15.1143 15.1627 16.5753 15.7056 17.7262 16.6134L13.68 20.2319L13.6149 20.2899L13.5881 20.2225L11.7134 15.4061C12.2898 15.2469 12.8968 15.1627 13.5249 15.1627ZM13.77 21.6208C13.77 21.7762 13.6417 21.9016 13.4828 21.9016C13.3238 21.9016 13.1955 21.7762 13.1955 21.6208C13.1955 21.4655 13.3238 21.34 13.4828 21.34C13.6417 21.34 13.77 21.4655 13.77 21.6208ZM10.0494 16.1436C10.2408 16.0275 10.4419 15.9208 10.6487 15.8291L12.2936 20.0559L9.22213 16.7744C9.47298 16.5386 9.75064 16.327 10.0494 16.1436ZM6.82276 21.7144C6.82276 20.1252 7.40298 18.6669 8.37 17.5307L12.0562 21.4655L12.0945 21.5085L12.0523 21.5272L7.1483 23.7342C6.93766 23.0978 6.82276 22.4183 6.82276 21.7144ZM8.01191 25.243C7.8817 25.0839 7.76489 24.9154 7.65766 24.7413L11.7919 22.8806L8.74723 25.9787C8.47532 25.7596 8.2283 25.5126 8.01191 25.243ZM13.5249 28.2662C11.9872 28.2662 10.5683 27.757 9.43468 26.9015L13.2626 23.0061L13.3928 22.875L13.4521 23.0229L15.39 28.0078C14.7983 28.1763 14.1721 28.2662 13.5249 28.2662ZM17.077 27.3264C16.8855 27.4444 16.6845 27.5492 16.4777 27.6409L16.4623 27.6035L14.8328 23.4141L17.8909 26.6806L17.9043 26.6956C17.6534 26.9333 17.3757 27.143 17.077 27.3264ZM18.697 25.8776L14.9017 21.8249L14.8615 21.7799L14.9113 21.7612L19.9608 19.8837C20.1351 20.464 20.227 21.0798 20.227 21.7144C20.227 23.2943 19.6526 24.7451 18.697 25.8776Z" fill="black"/>
</g>
<defs>
<clipPath id="clip0_207_7486">
<rect width="27" height="38" fill="white"/>
</clipPath>
</defs>
</svg>
