<svg xmlns="http://www.w3.org/2000/svg" width="32" height="32" fill="none"><g clip-path="url(#a)"><path fill="url(#b)" d="M32.002 23.88c0 .175-.006.553-.017.849-.027.718-.082 1.644-.17 2.066-.13.635-.323 1.232-.58 1.731a6.07 6.07 0 0 1-1.145 1.573c-.455.454-.981.838-1.573 1.14-.499.257-1.101.449-1.742.58-.417.082-1.337.143-2.05.165-.296.01-.674.016-.85.016H8.118c-.175 0-.553-.006-.85-.016-.717-.028-1.643-.083-2.065-.17-.636-.132-1.233-.324-1.732-.581a6.075 6.075 0 0 1-1.572-1.145 6.185 6.185 0 0 1-1.14-1.573c-.257-.499-.45-1.101-.58-1.742-.083-.417-.143-1.337-.165-2.05-.006-.29-.011-.668-.011-.843V8.12c0-.175.005-.553.016-.849.028-.718.083-1.644.17-2.066C.32 4.57.512 3.973.77 3.474A6.183 6.183 0 0 1 3.481.762C3.98.504 4.583.312 5.224.18 5.64.099 6.56.038 7.274.016 7.568.006 7.946 0 8.122 0H23.88c.176 0 .554.005.85.016.717.028 1.644.083 2.066.17.635.132 1.232.324 1.731.581a6.072 6.072 0 0 1 1.573 1.145c.454.455.838.981 1.14 1.573.257.499.449 1.101.58 1.742.082.417.143 1.337.164 2.05.012.296.017.674.017.849V23.88Z"/><path fill="#fff" fill-rule="evenodd" d="M23.335 8.143a10.063 10.063 0 0 0-7.162-2.967c-5.583 0-10.12 4.542-10.125 10.12 0 1.784.467 3.525 1.352 5.057L5.966 25.6l5.368-1.405a10.092 10.092 0 0 0 4.839 1.23h.005c5.577 0 10.119-4.542 10.124-10.12 0-2.708-1.055-5.251-2.966-7.162Zm-7.157 15.57a8.416 8.416 0 0 1-4.285-1.172l-.306-.18-3.185.837.851-3.103-.2-.316A8.407 8.407 0 0 1 7.766 15.3c0-4.639 3.778-8.412 8.417-8.412 2.247 0 4.362.875 5.948 2.465a8.34 8.34 0 0 1 2.46 5.952c-.005 4.635-3.778 8.408-8.412 8.408Zm4.614-6.297c-.253-.127-1.497-.74-1.726-.822-.233-.083-.399-.126-.569.126-.17.253-.651.822-.802.992-.146.17-.297.19-.55.064-.253-.127-1.07-.394-2.032-1.255-.754-.671-1.26-1.498-1.406-1.75-.146-.253-.014-.39.112-.516.112-.112.253-.297.38-.443.126-.145.17-.252.252-.423.083-.17.044-.316-.02-.442-.062-.127-.568-1.371-.777-1.877-.204-.491-.413-.428-.57-.433-.145-.01-.315-.01-.485-.01a.932.932 0 0 0-.676.316c-.234.253-.885.866-.885 2.11 0 1.246.904 2.447 1.03 2.617.127.17 1.785 2.723 4.324 3.817.602.263 1.074.419 1.444.535.608.195 1.157.166 1.595.102.486-.073 1.497-.612 1.707-1.2.209-.59.209-1.1.145-1.202-.073-.117-.238-.18-.49-.306Z" clip-rule="evenodd"/></g><defs><linearGradient id="b" x1="16.003" x2="16.003" y1="32.002" y2="0" gradientUnits="userSpaceOnUse"><stop stop-color="#25CF43"/><stop offset="1" stop-color="#61FD7D"/></linearGradient><clipPath id="a"><rect width="32" height="32" fill="#fff" rx="16"/></clipPath></defs></svg>