<svg width="40" height="35" viewBox="0 0 40 35" fill="none" xmlns="http://www.w3.org/2000/svg">
<g clip-path="url(#clip0_207_7557)">
<path d="M19.8981 2.67627C11.7545 2.67627 5.12891 9.32627 5.12891 17.4998C5.12891 25.6733 11.7545 32.3233 19.8981 32.3233C28.0417 32.3233 34.6674 25.6733 34.6674 17.4998C34.6674 9.32627 28.0417 2.67627 19.8981 2.67627ZM19.8981 31.088C12.4335 31.088 6.35968 24.9919 6.35968 17.4998C6.35968 10.0077 12.4335 3.91156 19.8981 3.91156C27.3628 3.91156 33.4366 10.0077 33.4366 17.4998C33.4366 24.9919 27.3628 31.088 19.8981 31.088Z" fill="black"/>
<path d="M19.9993 0.206055C10.5552 0.206055 2.87109 7.91841 2.87109 17.3972C2.87109 26.8761 10.5552 34.5884 19.9993 34.5884C29.4434 34.5884 37.1275 26.8761 37.1275 17.3972C37.1275 7.91841 29.4434 0.206055 19.9993 0.206055ZM19.9993 33.3531C11.2342 33.3531 4.10186 26.1946 4.10186 17.3972C4.10186 8.59988 11.2342 1.44135 19.9993 1.44135C28.7644 1.44135 35.8967 8.59988 35.8967 17.3972C35.8967 26.1946 28.7644 33.3531 19.9993 33.3531Z" fill="black"/>
<path d="M19.9994 18.9413C20.8491 18.9413 21.5379 18.2499 21.5379 17.3971C21.5379 16.5444 20.8491 15.853 19.9994 15.853C19.1497 15.853 18.4609 16.5444 18.4609 17.3971C18.4609 18.2499 19.1497 18.9413 19.9994 18.9413Z" fill="black"/>
<path d="M19.9999 21.206C17.9076 21.206 16.2051 19.4972 16.2051 17.3972C16.2051 15.2972 17.9076 13.5884 19.9999 13.5884C22.0923 13.5884 23.7948 15.2972 23.7948 17.3972C23.7948 19.4972 22.0923 21.206 19.9999 21.206ZM19.9999 14.8237C18.5866 14.8237 17.4358 15.9787 17.4358 17.3972C17.4358 18.8157 18.5866 19.9707 19.9999 19.9707C21.4133 19.9707 22.5641 18.8157 22.5641 17.3972C22.5641 15.9787 21.4133 14.8237 19.9999 14.8237Z" fill="black"/>
<path d="M3.28205 34.3822C1.47282 34.3822 0 32.9039 0 31.0881C0 29.2722 1.47282 27.7939 3.28205 27.7939C5.09128 27.7939 6.5641 29.2722 6.5641 31.0881C6.5641 32.9039 5.09128 34.3822 3.28205 34.3822ZM3.28205 29.0292C2.15179 29.0292 1.23077 29.9537 1.23077 31.0881C1.23077 32.2225 2.15179 33.1469 3.28205 33.1469C4.41231 33.1469 5.33333 32.2225 5.33333 31.0881C5.33333 29.9537 4.41231 29.0292 3.28205 29.0292Z" fill="black"/>
<path d="M36.7176 34.9999C34.9084 34.9999 33.4355 33.5216 33.4355 31.7057C33.4355 29.8899 34.9084 28.4116 36.7176 28.4116C38.5268 28.4116 39.9996 29.8899 39.9996 31.7057C39.9996 33.5216 38.5268 34.9999 36.7176 34.9999ZM36.7176 29.6469C35.5873 29.6469 34.6663 30.5713 34.6663 31.7057C34.6663 32.8402 35.5873 33.7646 36.7176 33.7646C37.8479 33.7646 38.7689 32.8402 38.7689 31.7057C38.7689 30.5713 37.8479 29.6469 36.7176 29.6469Z" fill="black"/>
<path d="M36.7176 6.58824C34.9084 6.58824 33.4355 5.11 33.4355 3.29412C33.4355 1.47824 34.9084 0 36.7176 0C38.5268 0 39.9996 1.47824 39.9996 3.29412C39.9996 5.11 38.5268 6.58824 36.7176 6.58824ZM36.7176 1.23529C35.5873 1.23529 34.6663 2.15971 34.6663 3.29412C34.6663 4.42853 35.5873 5.35294 36.7176 5.35294C37.8479 5.35294 38.7689 4.42853 38.7689 3.29412C38.7689 2.15971 37.8479 1.23529 36.7176 1.23529Z" fill="black"/>
<path d="M3.28205 6.58824C1.47282 6.58824 0 5.11 0 3.29412C0 1.47824 1.47282 0 3.28205 0C5.09128 0 6.5641 1.47824 6.5641 3.29412C6.5641 5.11 5.09128 6.58824 3.28205 6.58824ZM3.28205 1.23529C2.15179 1.23529 1.23077 2.15971 1.23077 3.29412C1.23077 4.42853 2.15179 5.35294 3.28205 5.35294C4.41231 5.35294 5.33333 4.42853 5.33333 3.29412C5.33333 2.15971 4.41231 1.23529 3.28205 1.23529Z" fill="black"/>
<path d="M32.2802 13.8272L32.071 13.3537L26.9674 14.6343L31.6013 12.209L31.4577 11.719C31.2074 10.879 30.8402 10.0884 30.3643 9.36989C29.072 7.42224 27.2854 6.42577 26.0115 5.93372L25.5295 5.74636L23.6546 8.88195L24.7397 5.41489L24.2946 5.17195C23.5254 4.75607 22.7089 4.45754 21.8659 4.28666C19.5787 3.82548 17.6136 4.3896 16.3664 4.94548L15.8946 5.15548L17.1684 10.2696L14.7541 5.62695L14.2659 5.77107C13.4289 6.02225 12.6413 6.39077 11.9254 6.86842C9.98484 8.16548 8.99202 9.96077 8.50177 11.2372L8.3151 11.7211L12.8792 14.4696L7.98484 12.9255L7.74279 13.3722C7.32638 14.1443 7.031 14.9637 6.86074 15.8099C6.40125 18.1034 6.96331 20.0778 7.51715 21.3296L7.72638 21.8031L11.3202 20.9014L8.19613 22.5381L8.33972 23.0261C8.58997 23.8661 8.95715 24.6567 9.43305 25.3752C10.7254 27.3249 12.512 28.3193 13.7859 28.8114L14.2679 28.9987L17.0043 24.422L15.4679 29.3302L15.913 29.5731C16.6823 29.9911 17.4987 30.2875 18.3418 30.4584C18.9325 30.5778 19.5028 30.6293 20.0443 30.6293C21.5972 30.6293 22.9161 30.2114 23.8413 29.7996L24.313 29.5896L23.4166 25.9887L25.0433 29.1181L25.5315 28.974C26.3684 28.7228 27.1561 28.3543 27.872 27.8767C29.8125 26.5817 30.8054 24.7864 31.2956 23.5078L31.4823 23.024L28.3582 21.1422L31.8125 22.2314L32.0546 21.7846C32.471 21.0125 32.7664 20.1931 32.9366 19.347C33.3961 17.0534 32.8341 15.079 32.2802 13.8272ZM26.0443 7.28636C27.0905 7.76401 28.3787 8.60401 29.3387 10.0534C29.6566 10.5311 29.9172 11.0478 30.1182 11.5914L24.4464 14.5622C24.0361 13.9075 23.4638 13.3414 22.7172 12.8493L26.0443 7.28636ZM21.6238 5.49725C22.1838 5.61048 22.7315 5.7896 23.2566 6.03254L21.3387 12.1575C20.5879 11.9867 19.7859 11.9908 18.91 12.174L17.3428 5.87813C18.4197 5.4746 19.9233 5.15342 21.6238 5.49725ZM9.84946 11.2043C10.3254 10.1543 11.1623 8.86136 12.6064 7.89783C13.0823 7.58077 13.5972 7.31725 14.1387 7.11548L17.0987 12.8081C16.4464 13.2199 15.8823 13.7943 15.392 14.5437L9.84946 11.2043ZM8.44638 20.3496C8.04433 19.2687 7.72433 17.7596 8.0669 16.0528C8.17972 15.4908 8.35818 14.9411 8.60023 14.414L14.7028 16.339C14.5325 17.0925 14.5366 17.8975 14.7192 18.7767L8.44638 20.3496ZM13.753 27.4587C12.7069 26.9811 11.4187 26.1411 10.4587 24.6917C10.1407 24.214 9.88023 23.6972 9.6792 23.1537L15.351 20.1849C15.7613 20.8375 16.3336 21.4037 17.0802 21.8958L13.753 27.4587ZM16.1613 19.0978L15.9418 18.6161C15.7325 17.6814 15.7654 16.8867 16.0402 16.1475L16.2659 15.5381L16.231 15.5278C16.7459 14.6405 17.3284 14.0496 18.0505 13.6852C18.0525 13.6852 18.0525 13.6831 18.0546 13.6831L18.633 13.5143C19.6197 13.2302 20.4464 13.189 21.2054 13.3949L21.5766 13.6008C22.5489 14.1381 23.1869 14.7496 23.5725 15.5155L23.7428 16.1022C24.0279 17.0925 24.0669 17.9222 23.8618 18.684L23.6566 19.0567C23.0905 20.0881 22.4423 20.7449 21.6177 21.1237L21.1377 21.344C20.2043 21.554 19.4166 21.5211 18.6802 21.2452L18.071 21.0187L18.0607 21.0517C17.1254 20.5061 16.5202 19.8802 16.1633 19.0978H16.1613ZM18.5838 29.2478C18.0238 29.1346 17.4761 28.9555 16.951 28.7125L18.8689 22.5875C19.6197 22.7584 20.4218 22.7543 21.2977 22.5711L22.8648 28.867C21.7879 29.2705 20.2843 29.5917 18.5838 29.2478ZM29.9479 23.5408C29.472 24.5908 28.6351 25.8837 27.191 26.8472C26.7151 27.1664 26.2002 27.4278 25.6587 27.6296L22.6987 21.937C23.351 21.5252 23.9151 20.9508 24.4054 20.2014L29.9479 23.5408ZM31.7305 19.104C31.6177 19.6661 31.4392 20.2158 31.1972 20.7428L25.0946 18.8178C25.2648 18.0643 25.2607 17.2593 25.0782 16.3802L31.351 14.8072C31.753 15.8881 32.073 17.3972 31.7305 19.104Z" fill="black"/>
</g>
<defs>
<clipPath id="clip0_207_7557">
<rect width="40" height="35" fill="white"/>
</clipPath>
</defs>
</svg>
